<?xml version="1.0" encoding="utf-8"?>
<!-- Generator: Adobe Illustrator 27.5.0, SVG Export Plug-In . SVG Version: 6.00 Build 0)  -->
<svg version="1.1" id="Capa_1" xmlns="http://www.w3.org/2000/svg" xmlns:xlink="http://www.w3.org/1999/xlink" x="0px" y="0px"
	 viewBox="0 0 2263 1989" style="enable-background:new 0 0 2263 1989;" xml:space="preserve">
<g>
	<g>
		<linearGradient id="SVGID_1_" gradientUnits="userSpaceOnUse" x1="1131.3477" y1="14.5607" x2="1131.3477" y2="667.6801">
			<stop  offset="0" style="stop-color:#6BCDE6"/>
			<stop  offset="1" style="stop-color:#EFF3C3"/>
		</linearGradient>
		<rect y="0.004" style="fill:url(#SVGID_1_);" width="2262.695" height="1637.621"/>
		<polygon style="opacity:0.2;fill:#FFFFFF;" points="0,167.496 2262.695,67.152 2262.695,31.934 0,64.094 		"/>
		<polygon style="opacity:0.2;fill:#FFFFFF;" points="0,274.32 2262.695,84.258 2262.695,82.93 0,216.918 		"/>
	</g>
	<g>
		<g>
			
				<linearGradient id="SVGID_00000034089093297100821780000004273350519434378431_" gradientUnits="userSpaceOnUse" x1="1131.3477" y1="14.5607" x2="1131.3477" y2="667.6801">
				<stop  offset="0" style="stop-color:#6BCDE6"/>
				<stop  offset="1" style="stop-color:#EFF3C3"/>
			</linearGradient>
			
				<rect y="0.004" style="fill:url(#SVGID_00000034089093297100821780000004273350519434378431_);" width="2262.695" height="1637.621"/>
			<polygon style="opacity:0.2;fill:#FFFFFF;" points="0,167.496 2262.695,67.152 2262.695,31.934 0,64.094 			"/>
			<polygon style="opacity:0.2;fill:#FFFFFF;" points="0,274.32 2262.695,84.258 2262.695,82.93 0,216.918 			"/>
		</g>
		<polygon style="fill:#97C1C6;" points="1212.66,1298.652 1212.66,1210.613 1147.535,1210.613 1147.535,1085.926 962.758,1085.926 
			962.758,955.316 851.535,955.316 851.535,767.969 747.766,767.969 747.766,992.363 614.18,992.363 614.18,883.019 478.25,883.019 
			478.25,1058.238 372.852,1058.238 372.852,979.219 229.793,979.219 229.793,823.418 55.066,823.418 55.066,975.344 0,975.344 
			0,1298.652 100.016,1298.652 100.016,1269.566 214.816,1269.566 214.816,1298.652 		"/>
		<polygon style="fill:#97C1C6;" points="1050.043,1320.582 1050.043,1232.551 1115.16,1232.551 1115.16,1107.859 
			1299.945,1107.859 1299.945,977.25 1411.168,977.25 1411.168,789.902 1514.938,789.902 1514.938,1014.301 1648.516,1014.301 
			1648.516,904.953 1784.453,904.953 1784.453,1080.168 1889.844,1080.168 1889.844,1001.152 2032.914,1001.152 2032.914,845.352 
			2207.641,845.352 2207.641,997.273 2262.695,997.273 2262.695,1320.582 2162.688,1320.582 2162.688,1291.504 2047.891,1291.504 
			2047.891,1320.582 		"/>
		<path style="fill:#7E7F2F;" d="M1252.824,1476.617l1009.871,61.074v-346.543c-25.59,1.813-45.766,40.348-45.766,40.348
			c-101.109-97.422-94.527,65.406-94.527,65.406c-13.305-85.02-99.707-47.734-99.707-47.734
			c-85.145-47.816-130.168,50.305-130.168,50.305c26.816-173.113-103.344-50.305-103.344-50.305
			c-92.492-119.656-167.555,25.781-167.555,25.781c-87.68-69.371-151.395,38.344-151.395,38.344
			c21.879-48.02-12.648-73.973-12.648-73.973c-48.922-33.715-99.277,78.832-99.277,78.832
			c-14.211-84.469-105.484-74.914-105.484-74.914c-31.223-0.969-87.797,5.332-113.727,59.137c0,0-61.398-78.645-85.801,0
			c0,0-99.125-51.789-126.73,55.484c0,0-25.277-82.379-91.262-51.137c0,0-66.641-135.762-144.734-12.512
			c0,0-91.797-21.629-115.336,63.699c0,0-11.402-142.402-118.594-82.742c0,0-60.176-146.008-157.348-14.133
			c0,0-124.41-221.363-211.852-26.692c0,0-58.359-32.617-87.441,1.059v195.285C86.414,1443.223,1160.57,1478.145,1252.824,1476.617z
			"/>
		<path style="fill:#666829;" d="M1252.824,1423.504c0,0,780.805,25.582,1009.871,27.336v-217.016
			c-29.957,7.149-45.766,63.66-45.766,63.66c-63.855-54.496-81.59,45.855-81.59,45.855c8.898-126.832-101.555-55.512-101.555-55.512
			c-90.914-85.434-141.258,9.656-141.258,9.656s-55.191-80.324-86.973-68.59c-31.773,11.73-20.707,100.684-20.707,100.684
			c-84.414-88.023-150.313,24.02-150.313,24.02c34.914-135.363-87.324-60.645-87.324-60.645
			c-69.961-55.871-114.934,28.234-114.934,28.234c-20.133-119.727-117.188-33.359-117.188-33.359
			c-76.84-57.32-62.266,66.414-62.266,66.414c-19.855-5.172-42.48,6.758-42.48,6.758c3.473-103.691-54.316-45.984-54.316-45.984
			c-50.848-108.84-127.125,7.461-127.125,7.461c-49.688-27.602-84.367,52.875-84.367,52.875
			c-8.094-38.938-56.195-21.934-56.195-21.934c-19.219-116.77-119.473-45.711-119.473-45.711
			c-67.031-62.785-105.727,60.633-105.727,60.633c-54.875-38.258-87.203,24.531-87.203,24.531
			c-34.602-107.922-93.676-39.453-93.676-39.453c-119.035-227.449-261.305,0-261.305,0s0.055-46.27-50.191-125.199
			c-50.25-78.922-117.269,119.75-117.269,119.75c-7.508-41.023-31.418-63.145-53.496-75.016v160.938
			C189.434,1440.801,1079.895,1470.434,1252.824,1423.504z"/>
		<g>
			<path style="fill:#304921;" d="M164.418,1188.102l-21.691-30.832l-123.281-15.047c0,0-9.602,5.129-19.445,11.594v28.227
				c11.926,1.008,20.699-1.051,20.699-1.051s-15.48,16.988,0,16.59c0,0-5.234,46.992,33.398,13.543c0,0,1.582,28.617,23.109,8.762
				c0,0,18.313,24.688,30.66-3.984c0,0,13.941,37.727,22.297-2.441c0,0,32.656,55.805,25.883-16.672L164.418,1188.102z"/>
			<g>
				<path style="fill:#964336;" d="M57.02,1183.914c0,0,20.973,85.758,22.57,92.656l-4.512,85.23c0,0,15.398,5.305,19.109,0
					l-6.641-101.426l30.535-76.461h-3.176c0,0-28.242,68.938-33.191,70.352c-3.723,1.063-21.246-71.949-21.246-71.949
					L57.02,1183.914z"/>
				<polygon style="fill:#5F1A0F;" points="89.195,1285.563 78.719,1292.82 77.723,1311.711 90.109,1299.426 				"/>
				<polygon style="fill:#5F1A0F;" points="91.871,1326.336 91.449,1319.891 76.988,1325.832 76.309,1338.422 				"/>
				<path style="fill:#5F1A0F;" d="M72.113,1245.699l4.051-4.309c-0.648-2.063-1.32-4.293-2.004-6.66l-4.543,0.746
					C70.469,1238.945,71.301,1242.383,72.113,1245.699z"/>
				<path style="fill:#5F1A0F;" d="M62.41,1205.945c0.504,2.082,1.039,4.246,1.578,6.477L67.41,1210
					c-0.355-1.371-0.707-2.723-1.059-4.055H62.41z"/>
				<path style="fill:#5F1A0F;" d="M97.25,1225.098c-1.406,3.137-2.813,6.215-4.18,9.121l5.5-1.461l2.93-7.309L97.25,1225.098z"/>
				<polygon style="fill:#5F1A0F;" points="92.973,1343.141 75.664,1350.711 75.34,1356.852 93.25,1347.477 				"/>
			</g>
			<path style="fill:#59833A;" d="M188.523,1138.242c26.09-28.676-10.391-31.066-10.391-31.066s13.758-7.164,12.453-19.906
				c-1.297-12.75-28.777,0-28.777,0c-1.426-40.625-39.18-17.523-39.18-17.523s10.328-40.625-3.59-44.609
				c-13.895-3.977-26.785,28.805-26.785,28.805s-3.906-43.934-27.805-49.144c-23.902-5.207-21.082,68.133-21.082,68.133
				c-30.394-16.727-21.961,22.305-21.961,22.305c-24.731-3.191-6.012,19.91-6.012,19.91s-7.262-1.047-15.394,0.809v28.941
				c10.715,4.293,22.18,6.891,22.18,6.891s-23.832,23.094-3.637,38.23c20.203,15.133,52.203-7.168,52.203-7.168
				c-6.445,28.672,19.887,7.961,19.887,7.961c24.59,35.051,40.871-5.57,40.871-5.57s38.891,31.859,50.691,27.875
				c11.809-3.984-10.648-45.395-10.648-45.395C222.895,1181.254,188.523,1138.242,188.523,1138.242z"/>
			<g>
				<path style="fill:#476B32;" d="M149.695,1135.406c0,0-4.434,52.773-45.313,20.949c0,0-23.125,33.293-25.828-2.168
					c0,0-29.117,37.152-57.856,26.805c-4.531-1.625-7.863-3.875-10.266-6.508c-0.207,5.324,1.813,10.816,8.109,15.531
					c20.203,15.133,52.203-7.168,52.203-7.168c-6.445,28.672,19.887,7.961,19.887,7.961c24.59,35.051,40.871-5.57,40.871-5.57
					s38.891,31.859,50.691,27.875c11.809-3.984-10.648-45.395-10.648-45.395c33.047,8.711,30.578-6,24.633-17.594
					C175.684,1146.059,149.695,1135.406,149.695,1135.406z"/>
			</g>
		</g>
		<g>
			<path style="fill:#BB4D2C;" d="M220.539,1109.18c0,0,4.551,86.887,26.746,55.109c0,0,23.203,11.602,26.234-20.184
				c0,0,7.063,32.793,35.305,6.059c0,0,11.102,33.797,27.746,2.016c0,0,21.191,19.168,15.141-18.664
				c-6.051-37.832-47.926-47.926-47.926-47.926L220.539,1109.18z"/>
			<path style="fill:#582B43;" d="M343.637,1136.539c0,0,3.531,29.766-9.586,37.332c-13.113,7.566-32.281,19.676-36.316,29.762
				c-4.035,10.09,6.559,172.02,5.547,179.082H273.52c0,0,16.719-170,13.156-177.063c-3.574-7.063-53.496-23.262-54.519-31.781
				c-1.035-8.52-14.125-53.473-13.625-54.992c0.5-1.504,3.535-3.02,3.535-3.02s7.055,45.781,11.094,44.836
				c4.031-0.949,6.559-58.457,6.559-58.457l7.066-5.547c0,0-13.121,75.16-8.578,76.676c4.535,1.512,19.676,13.113,22.699,11.602
				c3.023-1.512-10.598-22.699-8.074-38.336c2.52-15.645,6.555-41.367,6.555-41.367l5.945-0.504c0,0-9.98,41.871-6.945,48.926
				c3.023,7.07,10.086,32.293,10.086,32.293s16.727,8.57,18.203,4.539c1.465-4.039-10.121-42.879-9.129-49.438
				c1.012-6.559,3.742-24.215,3.742-24.215l5.387-4.539c0,0-5.082,26.23-3.07,30.77c2.023,4.543,7.066,51.457,10.094,49.438
				c3.031-2.016,16.145-12.106,17.652-16.645c1.516-4.543,1.008-47.457,1.008-47.457l5.547-3.992c0,0-4.539,54.473-0.5,51.449
				c4.035-3.027,21.184-6.684,20.18-15.195c-1.016-8.516,1.512-30.207,1.512-30.207L343.637,1136.539z"/>
			<path style="fill:#582B43;" d="M343.637,1136.539c0,0,3.531,29.766-9.586,37.332c-13.113,7.566-32.281,19.676-36.316,29.762
				c-4.035,10.09,6.559,172.02,5.547,179.082H273.52c0,0,16.719-170,13.156-177.063c-3.574-7.063-53.496-23.262-54.519-31.781
				c-1.035-8.52-14.125-53.473-13.625-54.992c0.5-1.504,3.535-3.02,3.535-3.02s7.055,45.781,11.094,44.836
				c4.031-0.949,6.559-58.457,6.559-58.457l7.066-5.547c0,0-13.121,75.16-8.578,76.676c4.535,1.512,19.676,13.113,22.699,11.602
				c3.023-1.512-10.598-22.699-8.074-38.336c2.52-15.645,6.555-41.367,6.555-41.367l5.945-0.504c0,0-9.98,41.871-6.945,48.926
				c3.023,7.07,10.086,32.293,10.086,32.293s16.727,8.57,18.203,4.539c1.465-4.039-10.121-42.879-9.129-49.438
				c1.012-6.559,3.742-24.215,3.742-24.215l5.387-4.539c0,0-5.082,26.23-3.07,30.77c2.023,4.543,7.066,51.457,10.094,49.438
				c3.031-2.016,16.145-12.106,17.652-16.645c1.516-4.543,1.008-47.457,1.008-47.457l5.547-3.992c0,0-4.539,54.473-0.5,51.449
				c4.035-3.027,21.184-6.684,20.18-15.195c-1.016-8.516,1.512-30.207,1.512-30.207L343.637,1136.539z"/>
			<path style="fill:#F7954A;" d="M265.332,930.223c0.246,1.574,7.176-43.387,28.379-41.266c15.57,1.563,22.18,42.274,21.684,50.344
				c0,0,18.156-19.672,25.227-14.125c7.043,5.551,3.016,31.277,0,35.816c0,0,8.063-2.519,17.141,0
				c9.082,2.523,10.094,16.648,7.063,23.711c0,0,27.742-9.082,34.805,4.539c7.066,13.621-13.113,24.215-13.113,24.215
				s28.246-8.074,22.191,16.141c0,0,24.219-9.586,28.758-2.02c4.539,7.57-1.008,25.227-17.148,33.297
				c0,0,20.18,10.086,14.629,21.188c-5.551,11.094-20.688,11.094-25.223,11.602c0,0,24.719,15.129,19.672,28.25
				c-5.043,13.117-44.395,10.09-53.977,3.531c0,0,4.539,21.691-10.594,24.719c-15.133,3.02-39.859-11.105-42.375-14.633
				c0,0-33.797,17.152-37.832-16.652c0,0-31.785,24.723-35.313-18.156c0,0-2.02,16.144-15.641,17.156c0,0,0.504,28.242-18.66,21.18
				c0,0-22.203,28.254-37.336,20.18c-15.133-8.066,0-33.793,0-33.793s-43.383,9.586-40.859-10.094c0,0,2.02-14.629,9.086-28.754
				c0,0-44.402,10.094-18.168-14.125c0,0-45.398-8.07-34.293-24.715c0,0,12.605-22.266,49.426-24.5c0,0-20.172-14.34-11.09-28.469
				c9.086-14.121,31.273-12.106,31.273-12.106s-10.09-19.672,13.109-26.738c0,0-10.586-29.766,0.512-35.816
				c11.09-6.051,26.734,14.125,26.734,14.125s5.543-16.648,24.215-7.059c0,0,5.039-16.652,16.648-16.652
				C255.859,910.543,262.805,914.078,265.332,930.223z"/>
			<path style="opacity:0.2;fill:#BB4D2C;" d="M429.395,1121.914c5.047-13.121-19.672-28.25-19.672-28.25
				c4.535-0.508,19.672-0.508,25.223-11.602c5.551-11.102-14.629-21.188-14.629-21.188c16.141-8.07,21.688-25.727,17.148-33.297
				c-4.539-7.566-28.758,2.02-28.758,2.02c6.055-24.215-22.191-16.141-22.191-16.141s20.18-10.594,13.113-24.215
				c-7.063-13.621-34.805-4.539-34.805-4.539c3.031-7.063,2.02-21.188-7.063-23.711c-9.078-2.519-17.141,0-17.141,0
				c3.016-4.539,7.043-30.266,0-35.816c-0.105-0.074-0.211-0.129-0.313-0.191c-2.027,20.488-18.867,56.188-18.867,56.188
				s14.625-5.047,24.219,3.531c9.578,8.574-10.59,27.238-10.59,27.238s15.629,2.523,17.73,18.668
				c2.098,16.141-33.883,20.68-33.883,20.68c-5.551,38.34-42.363,2.019-42.363,2.019c0,32.281-30.777,20.184-30.777,20.184
				c-23.711,38.332-29.27-1.519-29.27-1.519s-13.109,22.695-31.266,27.242c-18.164,4.543-3.531-33.801-3.531-33.801
				c-33.293,25.727-30.266-6.051-30.266-6.051c-34.098,4.68-34.297-16.777-30.555-31.785c-20.047,7.113-27.457,20.18-27.457,20.18
				c-11.105,16.645,34.293,24.715,34.293,24.715c-26.234,24.219,18.168,14.125,18.168,14.125
				c-7.066,14.125-9.086,28.754-9.086,28.754c-2.523,19.68,40.859,10.094,40.859,10.094s-15.133,25.727,0,33.793
				c15.133,8.074,37.336-20.18,37.336-20.18c19.164,7.063,18.66-21.18,18.66-21.18c13.621-1.012,15.641-17.156,15.641-17.156
				c3.527,42.879,35.313,18.156,35.313,18.156c4.035,33.805,37.832,16.652,37.832,16.652c2.516,3.527,27.242,17.652,42.375,14.633
				c15.133-3.027,10.594-24.719,10.594-24.719C385,1132.004,424.352,1135.031,429.395,1121.914z"/>
			<path style="fill:#38122B;" d="M296.809,1219.582c-0.004-4.641,0.074-8.465,0.25-11.246l-9.887,3.848
				c-0.008,3.566-0.172,8.398-0.477,14.172L296.809,1219.582z"/>
			<g>
				<path style="fill:#38122B;" d="M298.098,1265.797l-14.301,2.594c-0.219,2.723-0.438,5.488-0.664,8.273l15.207-5.227
					C298.254,1269.539,298.172,1267.66,298.098,1265.797z"/>
				<path style="fill:#38122B;" d="M284.785,1255.539c-0.25,3.32-0.508,6.73-0.781,10.211l13.918-4.461
					c-0.102-2.605-0.207-5.176-0.305-7.688L284.785,1255.539z"/>
			</g>
			<g>
				<path style="fill:#38122B;" d="M280.129,1311.785l19.785-6.266c-0.105-2.082-0.203-4.176-0.305-6.27l-18.742,4.086
					C280.621,1306.164,280.379,1308.988,280.129,1311.785z"/>
				<path style="fill:#38122B;" d="M302.477,1357.418l-26.961,4.563c-0.613,6.434-1.121,11.676-1.469,15.285l28.855-10.531
					C302.777,1363.918,302.629,1360.801,302.477,1357.418z"/>
				<path style="fill:#38122B;" d="M300.441,1316.43l-21.063,3.754c-0.391,4.363-0.789,8.637-1.164,12.773l22.586-9.375
					C300.676,1321.227,300.566,1318.844,300.441,1316.43z"/>
			</g>
		</g>
		<g>
			<g>
				<path style="fill:#525321;" d="M395.387,1166.242c0,0,13.898,49.941,28.164,23.117c0,0,16.609,22.383,27.438,1.445
					c0,0,21.641,15.215,28.172-4.699c0,0,11.918,15.168,16.969,7.223c5.055-7.945,2.172-22.75,2.172-22.75
					s26.719,5.414,17.336-20.223l-1.449-14.445l-39.359-14.442c0,0-46.684,7.223-49.344,9.027
					C422.828,1132.297,395.387,1166.242,395.387,1166.242z"/>
				<path style="fill:#2E2018;" d="M495.41,1155.051c0,0,1.441,15.891-6.141,20.582c-7.578,4.695-27.078,18.621-29.973,24.113
					c0,0,0.355-8.227,3.977-13.281c3.605-5.051,17.805-22.023,14.137-42.973h-3.305c0,0,4.695,17.617-3.254,28.137
					c-7.941,10.508-14.344,18.813-14.344,18.813s1.539-46.586,0-53.445h-3.711c0,0,3.254,36.828,1.805,44.418
					c-1.441,7.582-3.965,16.965-5.051,22.027c0,0-7.949-13-15.895-17.695c-7.941-4.695-24.918-19.938-25.277-25.137l-3.246,2.027
					c0,0,11.332,20.305,23.188,24.914c11.863,4.609,14.727,17.695,14.367,27.445c-0.367,9.754-3.973,18.773-3.973,22.391
					c0,0-45.5-33.226-43.328-50.199c2.164-16.969,1.441-18.418,1.441-18.418l-1.52,1.809l-4.262,18.781l11.195,21.66
					c0,0-2.891,4.332-6.855,2.535c-3.973-1.813-23.484-27.809-23.848-31.063l-3.602,2.531c0,0,17.57,31.418,36.109,35.387
					c0,0,31.418,13.723,33.945,30.332c2.531,16.617-4.691,126.758-4.691,126.758s11.914,6.859,19.496,0
					c0,0-2.527-127.473-2.891-132.535c-0.355-5.051,3.086-31.055,6.602-34.664c3.52-3.609,9.645-15.527,36.734-31.777
					c8.676-5.207,6.863-22.75,6.863-22.75L495.41,1155.051z"/>
				<path style="fill:#84822E;" d="M386.609,1043.469c-0.242,1.113,0.719-16.973-16.973-15.891
					c-17.695,1.082-28.523,25.637-21.309,33.945c0,0,1.082,5.777,5.785,5.777c0,0-24.559-0.355-19.5,8.664
					c5.047,9.031,17.328,9.75,17.328,9.75s-20.512,0.727-18.027,16.613c0,0-30.359,3.977-15.195,14.805
					c0,0,11.195,4.699,22.395,4.699c0,0-20.586,14.441-20.949,20.215c-0.359,5.781,6.867,14.09,25.641,14.09
					c0,0-12.27,11.551-10.105,17.695c2.16,6.137,14.082,10.469,20.578,9.75c0,0-5.059,5.777,2.531,8.301
					c7.578,2.527,26.168,0,28.426-11.914c0,0,1.539,18.418,9.492,18.777c7.938,0.363,11.551-23.836,10.828-30.695
					c0,0,15.164,6.141,17.695-12.637c0,0,18.773,21.305,18.773-9.391c0,0,12.285,3.613,15.535-11.195c0,0,5.41,16.973,21.297,10.473
					c0,0-9.027,15.168-4.328,19.32c4.695,4.148,25.641,0.906,29.605-12.102c0,0,14.453,4.699,21.313,1.449
					c6.859-3.254,14.445-23.109,3.613-28.891c0,0,6.863-7.258,0.719-15c0,0-9.75-13.887-20.215-13.172
					c0,0,18.047-14.433,11.188-19.133c-6.867-4.699-20.582,1.082-20.582,1.082s9.754-6.137,7.219-14.086
					c-2.527-7.938-15.164-25.996-25.637-17.688c0,0-1.082-29.613-22.387-5.414c0,0,5.777-10.484-7.578-14.453
					c0,0,5.047-17.691,0.715-22.746c-4.336-5.059-32.496-5.418-38.277,11.914c0,0-20.215-0.723-15.164,20.223
					C401.059,1036.605,389.496,1030.109,386.609,1043.469z"/>
				<g>
					<g>
						<path style="fill:#75782E;" d="M506.133,1152.52c0,0,14.453,4.699,21.313,1.449c6.859-3.254,14.445-23.109,3.613-28.891
							c0,0,6.863-7.258,0.719-15c0,0-9.75-13.887-20.215-13.172c0,0,18.047-14.433,11.188-19.133
							c-6.867-4.699-20.582,1.082-20.582,1.082s9.754-6.137,7.219-14.086c-2.527-7.938-15.164-25.996-25.637-17.688
							c0,0-0.332-9.199-4.32-13.148c1.742,11.395-0.629,23.254-0.629,23.254s12.641-3.25,16.973,1.445
							c4.332,4.695-9.027,22.395-9.027,22.395s14.078,1.082,16.605,5.773c2.531,4.691-5.777,13.293-5.777,13.293
							s14.449,0.789,16.977,14.508c2.527,13.727-19.859,9.758-19.859,9.758c-6.145,18.051-20.945-1.809-20.945-1.809
							c-14.805,14.082-28.891-4.336-28.891-4.336c-5.418,23.48-27.449,9.395-27.449,9.395c3.258,26.723-11.559,23.832-11.559,23.832
							c-12.992,22.027-27.805-1.078-27.805-1.078c-2.523,3.242-11.555,9.02-20.941,1.438c-5.941-4.805-0.875-12.945,3.633-18.266
							c-7.352,5.469-20.578,11.305-27.82,9.957c-5.984-1.105-4.625-8.051-2.688-13.258c-5.004,4.227-9.887,9.027-10.063,11.813
							c-0.359,5.781,6.867,14.09,25.641,14.09c0,0-12.27,11.551-10.105,17.695c2.16,6.137,14.082,10.469,20.578,9.75
							c0,0-5.059,5.777,2.531,8.301c7.578,2.527,26.168,0,28.426-11.914c0,0,1.539,18.418,9.492,18.777
							c7.938,0.363,11.551-23.836,10.828-30.695c0,0,15.164,6.141,17.695-12.637c0,0,18.773,21.305,18.773-9.391
							c0,0,12.285,3.613,15.535-11.195c0,0,5.41,16.973,21.297,10.473c0,0-9.027,15.168-4.328,19.32
							C481.223,1168.77,502.168,1165.527,506.133,1152.52z"/>
						<path style="fill:#75782E;" d="M365.773,1128.328c0,0-2.43,2.137-5.039,5.207
							C363.277,1131.652,365.121,1129.813,365.773,1128.328z"/>
					</g>
				</g>
			</g>
			<g>
				<g>
					<path style="fill:#1A0E0A;" d="M451.578,1317.543l-14.777-1.316c-0.25,4.902-0.492,9.777-0.746,14.523l15.691-5.297
						C451.691,1322.84,451.633,1320.199,451.578,1317.543z"/>
					<path style="fill:#1A0E0A;" d="M437.992,1250.742c0.18,1.219,0.316,2.934,0.41,5.063l11.77-2.266
						c-0.078-3.023-0.148-5.367-0.188-6.859l-12.898,0.691C437.508,1248.477,437.816,1249.609,437.992,1250.742z"/>
					<path style="fill:#1A0E0A;" d="M438.266,1279.867l12.43-3.805c-0.066-3.191-0.133-6.23-0.199-9.07l-11.988,0.418
						C438.477,1271.176,438.391,1275.375,438.266,1279.867z"/>
					<path style="fill:#1A0E0A;" d="M452.402,1357.715l-17.926,0.836c-0.191,3.234-0.371,6.148-0.527,8.672l18.547-4.539
						C452.473,1361.125,452.434,1359.461,452.402,1357.715z"/>
					<path style="fill:#1A0E0A;" d="M435.82,1335.063c-0.277,5.191-0.563,10.16-0.828,14.762l17.105-6.898
						c-0.066-3.586-0.141-7.34-0.227-11.184L435.82,1335.063z"/>
				</g>
			</g>
		</g>
		<rect y="1428.309" style="fill:#FFE1BD;" width="2262.695" height="59.051"/>
		<rect y="1340.508" style="fill:#BCB030;" width="2262.695" height="87.914"/>
		<g>
			<path style="fill:#304921;" d="M2262.695,1134.23l-123.621-15.086c0,0-10.082,5.379-20.414,12.168v29.613
				c12.512,1.063,21.719-1.094,21.719-1.094s-16.242,17.824,0,17.402c0,0-5.488,49.313,35.051,14.207c0,0,1.652,30.035,24.227,9.195
				c0,0,19.238,25.91,32.191-4.18c0,0,14.621,39.59,23.406-2.566c0,0,3.199,5.477,7.441,10.902V1134.23z"/>
			<g>
				<path style="fill:#964336;" d="M2178.484,1162.887c0,0,22.016,89.988,23.688,97.23l-4.738,89.438c0,0,16.16,5.57,20.063,0
					l-6.969-106.43l32.043-80.238h-3.344c0,0-29.625,72.352-34.824,73.832c-3.902,1.117-22.289-75.504-22.289-75.504
					L2178.484,1162.887z"/>
				<polygon style="fill:#5F1A0F;" points="2212.254,1269.555 2201.27,1277.176 2200.219,1296.996 2213.211,1284.105 				"/>
				<polygon style="fill:#5F1A0F;" points="2215.059,1312.34 2214.617,1305.586 2199.43,1311.816 2198.73,1325.027 				"/>
				<path style="fill:#5F1A0F;" d="M2194.32,1227.723l4.254-4.516c-0.676-2.168-1.387-4.512-2.098-6.992l-4.77,0.785
					C2192.594,1220.645,2193.473,1224.246,2194.32,1227.723z"/>
				<path style="fill:#5F1A0F;" d="M2184.141,1186.012c0.527,2.18,1.09,4.461,1.66,6.797l3.594-2.539
					c-0.379-1.441-0.746-2.863-1.098-4.258H2184.141z"/>
				<path style="fill:#5F1A0F;" d="M2220.715,1206.109c-1.488,3.293-2.961,6.516-4.398,9.57l5.781-1.531l3.066-7.672
					L2220.715,1206.109z"/>
				<polygon style="fill:#5F1A0F;" points="2216.215,1329.984 2198.055,1337.914 2197.703,1344.359 2216.504,1334.531 				"/>
			</g>
			<path style="fill:#59833A;" d="M2262.695,1036.988c-8.285,1.777-15.359,6.102-15.359,6.102s10.836-42.633-3.754-46.813
				c-14.594-4.176-28.113,30.227-28.113,30.227s-4.109-46.106-29.184-51.57c-25.086-5.465-22.121,71.492-22.121,71.492
				c-31.895-17.547-23.055,23.406-23.055,23.406c-25.941-3.348-6.297,20.891-6.297,20.891s-7.621-1.09-16.152,0.855v30.367
				c11.246,4.5,23.277,7.23,23.277,7.23s-25.023,24.238-3.82,40.117c21.191,15.883,54.773-7.52,54.773-7.52
				c-6.766,30.09,20.871,8.359,20.871,8.359c25.797,36.77,42.895-5.852,42.895-5.852s2.328,1.914,6.039,4.754V1036.988z"/>
			<g>
				<path style="fill:#476B32;" d="M2262.695,1141.227c-7.102,5.281-17.934,5.637-34.504-7.254c0,0-24.273,34.938-27.109-2.277
					c0,0-30.547,38.988-60.703,28.137c-4.758-1.715-8.25-4.074-10.773-6.828c-0.219,5.578,1.902,11.344,8.512,16.289
					c21.191,15.883,54.773-7.52,54.773-7.52c-6.766,30.09,20.871,8.359,20.871,8.359c25.797,36.77,42.895-5.852,42.895-5.852
					s2.328,1.914,6.039,4.754V1141.227z"/>
			</g>
		</g>
		<path style="fill:#A6972D;" d="M2262.695,1392.242C2015.141,1393.016,390.977,1362.84,0,1355.5v72.922h2262.695V1392.242z"/>
		<g>
			<path style="fill:#BB4D2C;" d="M1999.551,1122.496c0,0,3.973,76.02,23.395,48.219c0,0,20.297,10.152,22.945-17.656
				c0,0,6.184,28.688,30.895,5.297c0,0,9.707,29.57,24.277,1.766c0,0,18.531,16.766,13.23-16.328
				c-5.289-33.102-41.914-41.926-41.914-41.926L1999.551,1122.496z"/>
			<path style="fill:#582B43;" d="M2107.238,1146.445c0,0,3.086,26.031-8.391,32.656c-11.473,6.621-28.242,17.207-31.77,26.035
				c-3.535,8.824,5.734,150.492,4.852,156.672h-26.039c0,0,14.637-148.73,11.508-154.906c-3.129-6.18-46.789-20.348-47.695-27.801
				c-0.902-7.457-12.355-46.789-11.922-48.109c0.449-1.324,3.098-2.648,3.098-2.648s6.18,40.051,9.707,39.227
				c3.535-0.828,5.727-51.145,5.727-51.145l6.188-4.852c0,0-11.473,65.754-7.508,67.086c3.984,1.324,17.215,11.473,19.863,10.148
				c2.652-1.324-9.266-19.863-7.055-33.547c2.203-13.676,5.734-36.184,5.734-36.184l5.199-0.441c0,0-8.73,36.625-6.082,42.805
				c2.652,6.184,8.828,28.25,8.828,28.25s14.629,7.5,15.918,3.969c1.289-3.527-8.859-37.508-7.98-43.25
				c0.883-5.734,3.273-21.18,3.273-21.18l4.707-3.973c0,0-4.445,22.949-2.68,26.918c1.766,3.977,6.184,45.016,8.824,43.254
				c2.656-1.769,14.125-10.594,15.449-14.563c1.324-3.977,0.883-41.523,0.883-41.523l4.859-3.492c0,0-3.98,47.66-0.445,45.016
				c3.523-2.648,18.535-5.852,17.656-13.297c-0.883-7.449,1.32-26.426,1.32-26.426L2107.238,1146.445z"/>
			<path style="fill:#582B43;" d="M2107.238,1146.445c0,0,3.086,26.031-8.391,32.656c-11.473,6.621-28.242,17.207-31.77,26.035
				c-3.535,8.824,5.734,150.492,4.852,156.672h-26.039c0,0,14.637-148.73,11.508-154.906c-3.129-6.18-46.789-20.348-47.695-27.801
				c-0.902-7.457-12.355-46.789-11.922-48.109c0.449-1.324,3.098-2.648,3.098-2.648s6.18,40.051,9.707,39.227
				c3.535-0.828,5.727-51.145,5.727-51.145l6.188-4.852c0,0-11.473,65.754-7.508,67.086c3.984,1.324,17.215,11.473,19.863,10.148
				c2.652-1.324-9.266-19.863-7.055-33.547c2.203-13.676,5.734-36.184,5.734-36.184l5.199-0.441c0,0-8.73,36.625-6.082,42.805
				c2.652,6.184,8.828,28.25,8.828,28.25s14.629,7.5,15.918,3.969c1.289-3.527-8.859-37.508-7.98-43.25
				c0.883-5.734,3.273-21.18,3.273-21.18l4.707-3.973c0,0-4.445,22.949-2.68,26.918c1.766,3.977,6.184,45.016,8.824,43.254
				c2.656-1.769,14.125-10.594,15.449-14.563c1.324-3.977,0.883-41.523,0.883-41.523l4.859-3.492c0,0-3.98,47.66-0.445,45.016
				c3.523-2.648,18.535-5.852,17.656-13.297c-0.883-7.449,1.32-26.426,1.32-26.426L2107.238,1146.445z"/>
			<path style="fill:#F7954A;" d="M2038.734,965.938c0.219,1.379,6.27-37.957,24.824-36.102
				c13.621,1.363,19.406,36.984,18.973,44.047c0,0,15.883-17.211,22.063-12.363c6.176,4.859,2.645,27.367,0,31.34
				c0,0,7.063-2.207,15,0c7.941,2.203,8.836,14.559,6.184,20.738c0,0,24.266-7.945,30.445,3.973
				c6.184,11.914-11.477,21.188-11.477,21.188s24.719-7.063,19.418,14.125c0,0,21.191-8.391,25.16-1.77
				c3.973,6.617-0.883,22.066-14.996,29.129c0,0,17.645,8.824,12.793,18.535s-18.094,9.711-22.066,10.152
				c0,0,21.621,13.234,17.215,24.715c-4.418,11.473-38.844,8.824-47.23,3.086c0,0,3.973,18.973-9.262,21.625
				c-13.246,2.648-34.867-9.707-37.07-12.801c0,0-29.57,15.008-33.105-14.563c0,0-27.801,21.625-30.895-15.887
				c0,0-1.762,14.125-13.68,15.004c0,0,0.438,24.711-16.332,18.539c0,0-19.414,24.715-32.656,17.652c-13.238-7.063,0-29.57,0-29.57
				s-37.957,8.387-35.742-8.828c0,0,1.762-12.797,7.938-25.152c0,0-38.84,8.824-15.887-12.359c0,0-39.719-7.066-30.012-21.625
				c0,0,11.031-19.476,43.254-21.434c0,0-17.652-12.551-9.711-24.91c7.941-12.352,27.359-10.59,27.359-10.59
				s-8.828-17.211,11.477-23.391c0,0-9.266-26.035,0.445-31.332c9.703-5.297,23.391,12.355,23.391,12.355s4.855-14.563,21.184-6.176
				c0,0,4.418-14.566,14.559-14.566C2030.449,948.723,2036.531,951.813,2038.734,965.938z"/>
			<path style="opacity:0.2;fill:#BB4D2C;" d="M2182.27,1133.645c4.406-11.48-17.215-24.715-17.215-24.715
				c3.973-0.441,17.215-0.441,22.066-10.152s-12.793-18.535-12.793-18.535c14.113-7.063,18.969-22.512,14.996-29.129
				c-3.969-6.621-25.16,1.77-25.16,1.77c5.301-21.188-19.418-14.125-19.418-14.125s17.66-9.273,11.477-21.188
				c-6.18-11.918-30.445-3.973-30.445-3.973c2.652-6.18,1.758-18.535-6.184-20.738c-7.938-2.207-15,0-15,0
				c2.645-3.973,6.176-26.481,0-31.34c-0.09-0.059-0.184-0.109-0.266-0.168c-1.777,17.926-16.516,49.156-16.516,49.156
				s12.805-4.41,21.191,3.09c8.383,7.504-9.266,23.832-9.266,23.832s13.684,2.211,15.512,16.328
				c1.84,14.125-29.633,18.098-29.633,18.098c-4.863,33.539-37.078,1.766-37.078,1.766c0,28.246-26.914,17.652-26.914,17.652
				c-20.746,33.543-25.609-1.324-25.609-1.324s-11.465,19.855-27.355,23.832c-15.887,3.973-3.086-29.563-3.086-29.563
				c-29.129,22.5-26.48-5.301-26.48-5.301c-29.828,4.094-30.012-14.676-26.734-27.805c-17.527,6.223-24.023,17.652-24.023,17.652
				c-9.707,14.559,30.012,21.625,30.012,21.625c-22.953,21.184,15.887,12.359,15.887,12.359
				c-6.176,12.355-7.938,25.152-7.938,25.152c-2.215,17.215,35.742,8.828,35.742,8.828s-13.238,22.508,0,29.57
				c13.242,7.063,32.656-17.652,32.656-17.652c16.77,6.172,16.332-18.539,16.332-18.539c11.918-0.879,13.68-15.004,13.68-15.004
				c3.094,37.512,30.895,15.887,30.895,15.887c3.535,29.57,33.105,14.563,33.105,14.563c2.203,3.094,23.824,15.449,37.07,12.801
				c13.234-2.652,9.262-21.625,9.262-21.625C2143.426,1142.469,2177.852,1145.117,2182.27,1133.645z"/>
			<path style="fill:#38122B;" d="M2066.266,1219.09c0-4.059,0.074-7.406,0.223-9.836l-8.652,3.367
				c-0.012,3.113-0.148,7.336-0.41,12.395L2066.266,1219.09z"/>
			<g>
				<path style="fill:#38122B;" d="M2067.402,1259.52l-12.52,2.266c-0.191,2.387-0.383,4.808-0.582,7.246l13.305-4.578
					C2067.535,1262.801,2067.461,1261.148,2067.402,1259.52z"/>
				<path style="fill:#38122B;" d="M2055.758,1250.547c-0.23,2.902-0.453,5.891-0.691,8.934l12.176-3.902
					c-0.094-2.281-0.188-4.527-0.27-6.727L2055.758,1250.547z"/>
			</g>
			<g>
				<path style="fill:#38122B;" d="M2051.68,1299.754l17.297-5.48c-0.082-1.824-0.168-3.648-0.258-5.484l-16.391,3.57
					C2052.109,1294.84,2051.891,1297.309,2051.68,1299.754z"/>
				<path style="fill:#38122B;" d="M2071.234,1339.68l-23.594,3.988c-0.539,5.633-0.984,10.223-1.289,13.371l25.246-9.211
					C2071.484,1345.367,2071.367,1342.633,2071.234,1339.68z"/>
				<path style="fill:#38122B;" d="M2069.457,1303.82l-18.438,3.281c-0.344,3.82-0.684,7.563-1.016,11.176l19.758-8.207
					C2069.66,1308.012,2069.559,1305.93,2069.457,1303.82z"/>
			</g>
		</g>
		<g>
			<g>
				<path style="fill:#525321;" d="M1871.566,1168.426c0,0,12.543,45.043,25.41,20.844c0,0,14.98,20.195,24.758,1.305
					c0,0,19.516,13.73,25.398-4.234c0,0,10.75,13.684,15.313,6.512c4.563-7.16,1.953-20.516,1.953-20.516
					s24.102,4.883,15.633-18.242l-1.301-13.027l-35.504-13.031c0,0-42.105,6.519-44.504,8.144
					C1896.32,1137.813,1871.566,1168.426,1871.566,1168.426z"/>
				<path style="fill:#2E2018;" d="M1961.789,1158.328c0,0,1.305,14.328-5.535,18.57c-6.844,4.23-24.426,16.789-27.039,21.742
					c0,0,0.328-7.414,3.586-11.98c3.258-4.555,16.059-19.859,12.754-38.758h-2.977c0,0,4.223,15.887-2.938,25.379
					c-7.16,9.477-12.941,16.965-12.941,16.965s1.383-42.016,0-48.203h-3.344c0,0,2.934,33.223,1.629,40.063
					c-1.297,6.836-3.586,15.309-4.563,19.867c0,0-7.172-11.727-14.332-15.961c-7.16-4.23-22.465-17.98-22.797-22.672l-2.938,1.828
					c0,0,10.234,18.32,20.922,22.477c10.695,4.156,13.289,15.957,12.961,24.758c-0.32,8.785-3.586,16.93-3.586,20.195
					c0,0-41.039-29.977-39.086-45.281c1.961-15.309,1.305-16.613,1.305-16.613l-1.371,1.633l-3.836,16.934l10.094,19.543
					c0,0-2.609,3.91-6.191,2.281c-3.586-1.629-21.164-25.082-21.496-28.012l-3.254,2.281c0,0,15.848,28.336,32.574,31.918
					c0,0,28.332,12.383,30.613,27.359c2.281,14.984-4.23,114.324-4.23,114.324s10.746,6.191,17.582,0
					c0,0-2.277-114.973-2.605-119.535s2.785-28.012,5.949-31.269c3.172-3.254,8.711-14.004,33.137-28.66
					c7.824-4.695,6.184-20.52,6.184-20.52L1961.789,1158.328z"/>
				<path style="fill:#84822E;" d="M1863.66,1057.684c-0.219,1.008,0.648-15.313-15.305-14.332
					c-15.965,0.976-25.734,23.125-19.227,30.617c0,0,0.984,5.215,5.215,5.215c0,0-22.145-0.328-17.586,7.813
					c4.559,8.145,15.633,8.793,15.633,8.793s-18.504,0.656-16.258,14.984c0,0-27.387,3.586-13.707,13.355
					c0,0,10.09,4.234,20.195,4.234c0,0-18.57,13.031-18.898,18.238c-0.32,5.211,6.195,12.703,23.125,12.703
					c0,0-11.066,10.426-9.113,15.961c1.945,5.539,12.699,9.441,18.563,8.793c0,0-4.563,5.211,2.285,7.492
					c6.84,2.281,23.605,0,25.645-10.746c0,0,1.391,16.609,8.559,16.938c7.156,0.328,10.418-21.5,9.762-27.688
					c0,0,13.68,5.531,15.961-11.398c0,0,16.941,19.219,16.941-8.469c0,0,11.07,3.258,14-10.098c0,0,4.891,15.309,19.215,9.445
					c0,0-8.141,13.683-3.91,17.426c4.242,3.742,23.137,0.816,26.711-10.914c0,0,13.035,4.234,19.223,1.305
					c6.184-2.93,13.023-20.844,3.258-26.055c0,0,6.188-6.543,0.645-13.535c0,0-8.793-12.527-18.23-11.875
					c0,0,16.285-13.027,10.094-17.262c-6.188-4.23-18.563,0.98-18.563,0.98s8.789-5.539,6.516-12.703
					c-2.285-7.168-13.688-23.453-23.137-15.965c0,0-0.969-26.703-20.191-4.883c0,0,5.215-9.445-6.836-13.031
					c0,0,4.559-15.953,0.648-20.52c-3.906-4.555-29.309-4.883-34.527,10.754c0,0-18.23-0.656-13.672,18.234
					C1876.691,1051.492,1866.262,1045.637,1863.66,1057.684z"/>
				<g>
					<g>
						<path style="fill:#75782E;" d="M1971.465,1156.047c0,0,13.035,4.234,19.223,1.305c6.184-2.93,13.023-20.844,3.258-26.055
							c0,0,6.188-6.543,0.645-13.535c0,0-8.793-12.527-18.23-11.875c0,0,16.285-13.027,10.094-17.262
							c-6.188-4.23-18.563,0.98-18.563,0.98s8.789-5.539,6.516-12.703c-2.285-7.168-13.688-23.453-23.137-15.965
							c0,0-0.301-8.285-3.895-11.855c1.574,10.285-0.574,20.98-0.574,20.98s11.406-2.938,15.32,1.297
							c3.898,4.238-8.148,20.203-8.148,20.203s12.703,0.969,14.988,5.211c2.277,4.23-5.219,11.988-5.219,11.988
							s13.035,0.711,15.316,13.086c2.277,12.379-17.914,8.797-17.914,8.797c-5.539,16.281-18.895-1.629-18.895-1.629
							c-13.355,12.699-26.059-3.91-26.059-3.91c-4.895,21.172-24.758,8.473-24.758,8.473c2.934,24.102-10.418,21.492-10.418,21.492
							c-11.73,19.871-25.086-0.973-25.086-0.973c-2.273,2.926-10.414,8.141-18.883,1.301c-5.375-4.336-0.797-11.676,3.273-16.473
							c-6.633,4.926-18.563,10.195-25.102,8.977c-5.391-0.996-4.168-7.258-2.41-11.957c-4.523,3.816-8.922,8.145-9.086,10.656
							c-0.32,5.211,6.195,12.703,23.125,12.703c0,0-11.066,10.426-9.113,15.961c1.945,5.539,12.699,9.441,18.563,8.793
							c0,0-4.563,5.211,2.285,7.492c6.84,2.281,23.605,0,25.645-10.746c0,0,1.391,16.609,8.559,16.938
							c7.156,0.328,10.418-21.5,9.762-27.688c0,0,13.68,5.531,15.961-11.398c0,0,16.941,19.219,16.941-8.469
							c0,0,11.07,3.258,14-10.098c0,0,4.891,15.309,19.215,9.445c0,0-8.141,13.683-3.91,17.426
							C1948.996,1170.703,1967.891,1167.777,1971.465,1156.047z"/>
						<path style="fill:#75782E;" d="M1844.863,1134.227c0,0-2.195,1.922-4.543,4.699
							C1842.617,1137.219,1844.27,1135.563,1844.863,1134.227z"/>
					</g>
				</g>
			</g>
			<g>
				<g>
					<path style="fill:#1A0E0A;" d="M1922.262,1304.891l-13.336-1.18c-0.215,4.414-0.445,8.816-0.672,13.09l14.152-4.777
						C1922.359,1309.664,1922.309,1307.285,1922.262,1304.891z"/>
					<path style="fill:#1A0E0A;" d="M1910.004,1244.641c0.172,1.094,0.285,2.641,0.363,4.566l10.629-2.051
						c-0.07-2.723-0.137-4.836-0.18-6.183l-11.641,0.625C1909.566,1242.602,1909.844,1243.613,1910.004,1244.641z"/>
					<path style="fill:#1A0E0A;" d="M1910.246,1270.906l11.215-3.43c-0.063-2.879-0.125-5.617-0.188-8.18l-10.809,0.375
						C1910.434,1263.07,1910.363,1266.859,1910.246,1270.906z"/>
					<path style="fill:#1A0E0A;" d="M1923,1341.121l-16.168,0.766c-0.176,2.91-0.336,5.543-0.48,7.813l16.738-4.094
						C1923.063,1344.199,1923.031,1342.695,1923,1341.121z"/>
					<path style="fill:#1A0E0A;" d="M1908.035,1320.691c-0.246,4.68-0.5,9.168-0.738,13.316l15.434-6.227
						c-0.063-3.234-0.137-6.617-0.203-10.082L1908.035,1320.691z"/>
				</g>
			</g>
		</g>
		<polygon style="fill:#8F812A;" points="2262.695,1409.941 0,1384.777 0,1428.422 2262.695,1428.422 		"/>
		<rect y="1456.277" style="fill:#AE7244;" width="2262.695" height="59.051"/>
		<rect y="1480.516" style="fill:#5F5F73;" width="2262.695" height="335.617"/>
		<rect y="1625.41" style="fill:#BCB030;" width="2262.699" height="363.371"/>
		<polygon style="fill:#A6972D;" points="2262.699,1941.23 0,1905.676 0,1988.781 2262.699,1988.781 		"/>
		<polygon style="fill:#A6972D;" points="0,1866.516 2262.699,1856.645 2262.699,1788.828 0,1752.805 		"/>
		<rect y="1595.234" style="fill:#FFE1BD;" width="2262.699" height="71.867"/>
		<rect y="1480.516" style="fill:#47495D;" width="2262.695" height="18.051"/>
		<g>
			<path style="fill:#1E1E3A;" d="M201.523,1020.914c0,2.203-1.777,3.988-3.98,3.988l0,0c-2.199,0-3.984-1.785-3.984-3.988v-8.336
				c0-2.195,1.785-3.98,3.984-3.98l0,0c2.203,0,3.98,1.785,3.98,3.98V1020.914z"/>
			<path style="fill:#FEF6D3;" d="M197.188,1044.234h-49.555c0,0,0.008,4.203,2.598,8.656c3.117,5.375,38.293,28.938,41.242,29.113
				l5.715,2.02l5.715-2.02c2.953-0.176,38.121-23.738,41.242-29.113c2.59-4.453,2.602-8.656,2.602-8.656H197.188z"/>
			<rect x="193.195" y="1083.801" style="fill:#393755;" width="5.977" height="217.063"/>
			<polygon style="fill:#534E6E;" points="202.168,1364.523 190.203,1364.523 187.637,1279.066 204.734,1279.066 			"/>
			<polygon style="fill:#393755;" points="203.445,1438.871 188.914,1438.871 185.93,1336.324 206.434,1336.324 			"/>
			<path style="fill:#1E1E3A;" d="M187.988,1081.109c0,0-0.094,2.465,4.117,4.137c4.207,1.672,11.465-0.715,13.137-2.371
				c0,0,2.91-2.73-0.508-3.375C202.715,1079.121,187.637,1078.984,187.988,1081.109z"/>
			<path style="fill:#393755;" d="M148.059,1047.352c0,0,70.375-4.078,98.688,0c0,0,5.188-3.883,4.051-9.188
				c-1.133-5.305-29.941-21.609-54.578-20.852c0,0-42.832,5.688-53.441,21.23C139.48,1043.371,148.059,1047.352,148.059,1047.352z"
				/>
		</g>
		<g>
			<path style="fill:#1E1E3A;" d="M2188.555,1026.781c0,2.203-1.777,3.98-3.98,3.98l0,0c-2.191,0-3.98-1.777-3.98-3.98v-8.336
				c0-2.195,1.789-3.98,3.98-3.98l0,0c2.203,0,3.98,1.785,3.98,3.98V1026.781z"/>
			<path style="fill:#FEF6D3;" d="M2184.223,1050.094h-49.559c0,0,0.012,4.211,2.602,8.672c3.117,5.367,38.289,28.934,41.242,29.105
				l5.715,2.02l5.715-2.02c2.953-0.172,38.125-23.738,41.242-29.105c2.59-4.461,2.598-8.672,2.598-8.672H2184.223z"/>
			<rect x="2180.23" y="1089.668" style="fill:#393755;" width="5.977" height="217.063"/>
			<polygon style="fill:#534E6E;" points="2189.199,1370.391 2177.238,1370.391 2174.672,1284.934 2191.77,1284.934 			"/>
			<polygon style="fill:#393755;" points="2190.48,1444.738 2175.949,1444.738 2172.965,1342.191 2193.473,1342.191 			"/>
			<path style="fill:#1E1E3A;" d="M2175.023,1086.973c0,0-0.094,2.469,4.117,4.141c4.207,1.668,11.465-0.711,13.137-2.371
				c0,0,2.91-2.73-0.508-3.371C2189.75,1084.988,2174.672,1084.852,2175.023,1086.973z"/>
			<path style="fill:#393755;" d="M2135.094,1053.219c0,0,70.375-4.078,98.684,0c0,0,5.188-3.883,4.055-9.183
				c-1.133-5.309-29.945-21.613-54.578-20.856c0,0-42.832,5.691-53.441,21.231
				C2126.516,1049.234,2135.094,1053.219,2135.094,1053.219z"/>
		</g>
		<path style="fill:#FFFFFF;" d="M137.84,603.824H628.73l-117.437-16.023c0,0,9.414-42.422-32.887-49.328
			c-48.422-7.898-53.523,32.996-54.59,37.902c0,0,1.125-81.031-75.195-81.031c-82.461,0-76.902,71.317-76.902,71.317
			s-52.246-50.18-90.996,29.973L137.84,603.824z"/>
		<path style="fill:#FFFFFF;" d="M1571.457,495.344h490.902l-117.445-16.023c0,0,9.418-42.422-32.891-49.328
			c-48.422-7.898-53.52,32.996-54.582,37.902c0,0,1.125-81.031-75.195-81.031c-82.469,0-76.902,71.316-76.902,71.316
			s-52.25-50.18-90.996,29.973L1571.457,495.344z"/>
		<path style="fill:#FFFFFF;" d="M584.332,299.473h900.203c0,0-51.664-40.668-155.836-20.336c0,0-35.57-124.48-134.641-40.644
			c0,0,2.004-88.922-95.543-86.379c-97.551,2.543-92.469,99.078-92.469,99.078s-68.594-114.324-165.129-7.621
			c0,0-63.52-25.402-83.84,38.109L584.332,299.473z"/>
	</g>
	<g>
		<polygon style="fill:#90872D;" points="65.941,1780.191 58.492,1746.984 67.211,1767.844 69.98,1741.23 73.602,1763.457 
			75.953,1751.672 78.5,1763.457 84.039,1733.152 90.848,1760.605 92.551,1748.473 96.387,1759.121 104.043,1729.004 
			110.219,1750.82 111.918,1742.938 115.332,1750.176 120.227,1720.586 121.074,1746.766 124.699,1737.195 126.621,1750.391 
			130.02,1744.422 132.453,1765.996 136.836,1747.621 135.348,1778.926 		"/>
		<g>
			<path style="fill:#E3E1C5;" d="M220.078,1765.051c0,0-33.215-39.781-77.492-5.723c0,0-27.254-9.277-34.062-3.789l-16.188,14.867
				c0,0-28.949,5.766-31.508,10.973h168.609C229.438,1781.379,226.047,1757.141,220.078,1765.051z"/>
			<path style="fill:#D3C6A0;" d="M220.078,1765.051c0,0-33.215-39.781-77.492-5.723c0,0-25.793-8.781-33.457-4.199
				c8.988,3.652,28.793,12.164,31.75,17.402c0,0,14.055-10.48,20.008-9.074c5.969,1.41,14.48,11.629,14.48,11.629l53.402,2.352
				C227.5,1770.941,224.488,1759.199,220.078,1765.051z"/>
		</g>
		<polygon style="fill:#90872D;" points="189.852,1782.652 183.238,1755.402 191.977,1776.273 194.738,1749.656 198.367,1771.887 
			200.715,1760.09 203.262,1771.887 208.785,1741.566 215.594,1769.031 217.309,1756.902 221.141,1767.543 228.809,1737.434 
			234.984,1759.234 236.688,1751.359 240.082,1758.605 244.977,1729.004 245.836,1755.195 249.461,1745.613 251.375,1758.813 
			254.785,1752.852 257.199,1774.414 261.59,1756.043 259.258,1781.379 		"/>
	</g>
	<g>
		<polygon style="fill:#90872D;" points="1855.418,1732.293 1847.965,1699.082 1856.684,1719.945 1859.461,1693.332 
			1863.07,1715.555 1865.414,1703.77 1867.973,1715.555 1873.512,1685.254 1880.32,1712.707 1882.023,1700.578 1885.863,1711.223 
			1893.52,1681.109 1899.688,1702.918 1901.391,1695.039 1904.805,1702.277 1909.695,1672.68 1910.555,1698.875 1914.172,1689.289 
			1916.082,1702.488 1919.492,1696.523 1921.926,1718.09 1926.305,1699.719 1924.813,1731.02 		"/>
		<g>
			<path style="fill:#E3E1C5;" d="M2009.555,1717.148c0,0-33.227-39.781-77.496-5.719c0,0-27.254-9.281-34.07-3.793l-16.172,14.871
				c0,0-28.961,5.766-31.52,10.965h168.621C2018.918,1733.473,2015.508,1709.246,2009.555,1717.148z"/>
			<path style="fill:#D3C6A0;" d="M2009.555,1717.148c0,0-33.227-39.781-77.496-5.719c0,0-25.793-8.785-33.469-4.199
				c9.008,3.648,28.813,12.16,31.766,17.398c0,0,14.047-10.477,20.008-9.074c5.965,1.414,14.477,11.629,14.477,11.629l53.402,2.359
				C2016.973,1723.039,2013.961,1711.297,2009.555,1717.148z"/>
		</g>
		<polygon style="fill:#90872D;" points="1979.316,1734.75 1972.719,1707.504 1981.449,1728.371 1984.215,1701.762 
			1987.832,1723.984 1990.18,1712.188 1992.742,1723.984 1998.27,1693.668 2005.066,1721.137 2006.777,1708.996 2010.613,1719.641 
			2018.27,1689.531 2024.445,1711.336 2026.152,1703.457 2029.563,1710.699 2034.457,1681.109 2035.313,1707.293 2038.922,1697.711 
			2040.852,1710.91 2044.242,1704.953 2046.68,1726.52 2051.066,1708.145 2048.727,1733.473 		"/>
	</g>
	<g>
		<polygon style="fill:#90872D;" points="1367.246,1896.504 1359.793,1863.289 1368.512,1884.156 1371.289,1857.543 
			1374.906,1879.762 1377.242,1867.977 1379.801,1879.762 1385.34,1849.457 1392.148,1876.914 1393.852,1864.781 1397.688,1875.43 
			1405.348,1845.313 1411.523,1867.125 1413.227,1859.246 1416.637,1866.484 1421.531,1836.891 1422.383,1863.078 1426,1853.5 
			1427.914,1866.699 1431.32,1860.734 1433.754,1882.301 1438.141,1863.93 1436.645,1895.23 		"/>
		<g>
			<path style="fill:#E3E1C5;" d="M1521.383,1881.359c0,0-33.219-39.781-77.496-5.723c0,0-27.25-9.281-34.07-3.793l-16.172,14.867
				c0,0-28.957,5.762-31.512,10.973h168.613C1530.746,1897.684,1527.336,1873.449,1521.383,1881.359z"/>
			<path style="fill:#D3C6A0;" d="M1521.383,1881.359c0,0-33.219-39.781-77.496-5.723c0,0-25.785-8.781-33.465-4.199
				c9,3.648,28.809,12.16,31.762,17.398c0,0,14.051-10.477,20.008-9.074c5.965,1.414,14.477,11.633,14.477,11.633l53.402,2.352
				C1528.805,1887.246,1525.789,1875.508,1521.383,1881.359z"/>
		</g>
		<polygon style="fill:#90872D;" points="1491.148,1898.961 1484.547,1871.715 1493.277,1892.578 1496.043,1865.965 
			1499.66,1888.191 1502.008,1876.395 1504.566,1888.191 1510.094,1857.875 1516.902,1885.34 1518.605,1873.203 1522.441,1883.848 
			1530.102,1853.738 1536.277,1875.543 1537.98,1867.664 1541.391,1874.91 1546.285,1845.313 1547.137,1871.5 1550.754,1861.918 
			1552.676,1875.117 1556.074,1869.16 1558.508,1890.723 1562.895,1872.352 1560.555,1897.684 		"/>
	</g>
	<g>
		<path style="fill:#69581E;" d="M145.516,1951.977c0,0-22.711-12.57-36.906-28.82c-13.117-15.027-19.211-31.492-2.496-28.328
			c33.488,6.336,48.02,17.164,48.02,17.164s-25.695-63.977,32.949-35.98c0,0-14.656-66.645,5.336-67.977
			c19.984-1.34,46.836,46.648,46.836,46.648s10.309-68.977,44.289-56.48c31.777,11.684,31.371,55.637,31.371,55.637
			s65.875-79.012,56.098,16.781c0,0,51.988-36.934,21.32,24.207c0,0,80.836-46.813,7.77,27.824c0,0,47.379-3-12.598,21.992
			c0,0-39.91,17.992-52.859,7.332c0,0,14.383-14.332,10.383-16.328c-4.004-2-24.5,10.996-27,6.996c-2.5-3.996,6-18.996,1.004-17.492
			c-4.992,1.496-10.492,24.488-14.984,20.996c-4.508-3.504-7.996-20.996-7.996-20.996s-6.508,26.492-7.508,18.988
			c-1-7.492-15.496-31.48-15.988-25.484c-0.504,5.996,8.488,26.988,1.996,23.988c-6.5-2.992-20.988-25.492-20.488-20.988
			c0.496,4.492,5.996,22.484,1.996,20.988c-3.996-1.496-27.492-25.984-27.992-20.492c-0.5,5.5,15,23.996,9.004,22.492
			c-6.004-1.5-28.012-17.492-27.258-12.996c0.762,4.5,18.754,14.5,13.766,14.996c-5.004,0.5-22-10.496-20-5.996
			c2.008,4.496,24.488,13.418,16.996,14.703C213.074,1956.645,182.418,1966.301,145.516,1951.977z"/>
		<path style="opacity:0.6;fill:#4F4015;" d="M388.504,1930.152c-14.496-3-25.484,1.996-21.984-4.5
			c3.488-6.496,20.027-27.488,9.766-27.488c-10.27,0-34.262,13.492-34.262,13.492s10.492-37.906,3.996-33.441
			c-6.5,4.453-29.992,22.949-29.992,22.949s13.004-35.484,6.5-36.488c-6.5-1-31.984,33.988-31.984,33.988
			s-7.996-54.477-13.492-48.984c0,0-12.504-2.293-23.992,54.832c0,0-11.988-32.336-20.492-31.34c-8.492,1.004,0,28.988,0,28.988
			s-18.984-37.988-28.488-38.484c-9.5-0.5,5.734,51.98,5.734,51.98s-24.723-22.164-32.227-20.828
			c-7.488,1.336,14.992,37.824,14.992,37.824s-36.488-13.996-41.973-4.5c-3.695,6.375,21.668,22.203,47.965,31.008
			c10.871-1.047,18.691-3.238,22.004-3.809c7.492-1.285-14.988-10.207-16.996-14.703c-2-4.5,14.996,6.496,20,5.996
			c4.988-0.496-13.004-10.496-13.766-14.996c-0.754-4.496,21.254,11.496,27.258,12.996c5.996,1.504-9.504-16.992-9.004-22.492
			c0.5-5.492,23.996,18.996,27.992,20.492c4,1.496-1.5-16.496-1.996-20.988c-0.5-4.504,13.988,17.996,20.488,20.988
			c6.492,3-2.5-17.992-1.996-23.988c0.492-5.996,14.988,17.992,15.988,25.484c1,7.504,7.508-18.988,7.508-18.988
			s3.488,17.492,7.996,20.996c4.492,3.492,9.992-19.5,14.984-20.996c4.996-1.504-3.504,13.496-1.004,17.492
			c2.5,4,22.996-8.996,27-6.996c4,1.996-10.383,16.328-10.383,16.328c8.59,7.059,28.996,1.551,41.797-2.98
			C386.652,1941.25,396.773,1931.859,388.504,1930.152z"/>
	</g>
	<g>
		<g>
			<path style="fill:#69581E;" d="M2262.699,1805.051c-34.512,11.094-77.266,62.359-77.266,62.359s0.852-92.551-66.059-117.156
				c-71.547-26.301-93.246,118.918-93.246,118.918s-56.535-101.027-98.613-98.215c-42.098,2.813-11.23,143.121-11.23,143.121
				c-117.273-55.977-74.391,62.648-69.785,74.703h416.199V1805.051z"/>
			<path style="fill:#69581E;" d="M1745.805,1953.703c-26.02-4.926-25.75,12.754-12.695,35.078h112.262
				C1838.418,1984.156,1807.301,1965.332,1745.805,1953.703z"/>
		</g>
		<g>
			<path style="opacity:0.6;fill:#4F4015;" d="M2250.93,1918.719c-13.691,9.379-63.156,48.32-63.156,48.32
				s27.375-74.715,13.688-76.82c-13.688-2.109-67.348,71.559-67.348,71.559s-16.836-114.703-28.402-103.129
				c0,0-26.324-4.832-50.52,115.441c0,0-25.242-68.09-43.141-65.984c-17.879,2.105,0,61.031,0,61.031s-39.992-79.977-59.984-81.027
				c-16.551-0.863,2.551,74.594,9.641,100.672h280.895C2244.109,1983.285,2264.086,1909.676,2250.93,1918.719z"/>
			<path style="opacity:0.6;fill:#4F4015;" d="M1896.289,1953.703c-7.098,1.27-1.395,17.559,7.027,35.078h50.637
				C1937.977,1975.41,1907.691,1951.672,1896.289,1953.703z"/>
			<path style="opacity:0.6;fill:#4F4015;" d="M2262.699,1978.641c-9.754,4.773-17.395,8.945-19.555,10.141h19.555V1978.641z"/>
		</g>
	</g>
	<g>
		<g>
			<polygon style="fill:#701935;" points="1868.648,936.078 1397.203,936.078 1397.203,728.871 1784.375,728.871 			"/>
			<polygon style="fill:#8C2B43;" points="1452.18,766.738 1827.059,833.816 1784.375,728.871 1441.656,728.871 			"/>
			<polygon style="fill:#A5455E;" points="1784.375,728.871 1441.656,728.871 1443.629,735.981 1797.715,761.656 			"/>
			<polygon style="opacity:0.5;fill:#5F0525;" points="1723.215,728.871 1697.305,728.871 1762.621,936.078 1794.172,936.078 			"/>
			<polygon style="opacity:0.5;fill:#5F0525;" points="1603.992,728.871 1578.074,728.871 1634.422,936.078 1665.984,936.078 			"/>
			<polygon style="fill:#BD5539;" points="1883.66,1365.727 1452.18,1365.727 1452.18,938.652 1844.313,938.652 			"/>
			<polygon style="fill:#963420;" points="1845.723,954.019 1504.867,954.019 1504.867,986.644 1848.727,986.644 			"/>
			<polygon style="fill:#963420;" points="1579.113,1365.727 1669.84,1365.727 1541.879,938.652 1492.082,938.652 			"/>
			<rect x="1484.777" y="936.078" style="fill:#F9EDC9;" width="383.871" height="28.004"/>
			<g>
				<polygon style="fill:#FFFFFF;" points="1634.367,1236.879 1809.301,1236.879 1789.676,1058.723 1633.164,1058.723 				"/>
				<polygon style="fill:#5FCAE9;" points="1646.645,1224.188 1795.535,1224.188 1779.836,1071.414 1644.484,1071.414 				"/>
				<polygon style="fill:#44ACD3;" points="1645.16,1119.289 1784.754,1119.289 1779.836,1071.414 1644.484,1071.414 				"/>
				<polygon style="fill:#227C9A;" points="1644.805,1093.672 1644.484,1071.414 1779.836,1071.414 1782.121,1093.672 				"/>
				<polygon style="fill:#FFFFFF;" points="1712.852,1224.188 1729.316,1224.188 1719.645,1071.324 1704.672,1071.324 				"/>
				<polygon style="fill:#FFFFFF;" points="1645.668,1156.008 1788.527,1156.008 1787.316,1144.203 1645.512,1144.203 				"/>
				<polygon style="fill:#E67258;" points="1622.98,1255.848 1822.891,1255.848 1820.676,1236.879 1622.98,1236.879 				"/>
				<polygon style="fill:#7A1F16;" points="1630.375,1267.926 1816.906,1267.926 1815.547,1255.848 1630.328,1255.848 				"/>
			</g>
		</g>
		<g>
			<polygon style="fill:#701935;" points="394.055,936.078 865.5,936.078 865.5,728.871 478.328,728.871 			"/>
			<polygon style="fill:#8C2B43;" points="810.512,766.738 435.648,833.816 478.328,728.871 821.047,728.871 			"/>
			<polygon style="fill:#A5455E;" points="478.328,728.871 821.047,728.871 819.066,735.981 464.988,761.656 			"/>
			<polygon style="opacity:0.5;fill:#5F0525;" points="539.484,728.871 565.391,728.871 500.078,936.078 468.531,936.078 			"/>
			<polygon style="opacity:0.5;fill:#5F0525;" points="658.715,728.871 684.617,728.871 628.277,936.078 596.73,936.078 			"/>
			<polygon style="fill:#BD5539;" points="379.043,1365.727 810.512,1365.727 810.512,938.652 418.395,938.652 			"/>
			<polygon style="fill:#963420;" points="416.977,954.019 757.824,954.019 757.824,986.644 413.965,986.644 			"/>
			<polygon style="fill:#963420;" points="683.59,1365.727 592.867,1365.727 720.828,938.652 770.621,938.652 			"/>
			<rect x="394.055" y="936.078" style="fill:#F9EDC9;" width="383.871" height="28.004"/>
			<g>
				<polygon style="fill:#FFFFFF;" points="628.344,1236.879 453.398,1236.879 473.02,1058.723 629.543,1058.723 				"/>
				<polygon style="fill:#5FCAE9;" points="616.059,1224.188 467.172,1224.188 482.859,1071.414 618.211,1071.414 				"/>
				<polygon style="fill:#44ACD3;" points="617.531,1119.289 477.949,1119.289 482.859,1071.414 618.211,1071.414 				"/>
				<polygon style="fill:#227C9A;" points="617.898,1093.672 618.211,1071.414 482.859,1071.414 480.578,1093.672 				"/>
				<polygon style="fill:#FFFFFF;" points="549.84,1224.188 533.379,1224.188 543.066,1071.324 558.031,1071.324 				"/>
				<polygon style="fill:#FFFFFF;" points="617.016,1156.008 474.168,1156.008 475.383,1144.203 617.18,1144.203 				"/>
				<polygon style="fill:#E67258;" points="639.711,1255.848 439.816,1255.848 442.035,1236.879 639.711,1236.879 				"/>
				<polygon style="fill:#7A1F16;" points="632.32,1267.926 445.797,1267.926 447.16,1255.848 632.379,1255.848 				"/>
			</g>
		</g>
		<polygon style="opacity:0.5;fill:#5F0525;" points="1488.504,728.871 1462.598,728.871 1518.941,936.078 1550.484,936.078 		"/>
		<g>
			<g>
				<g>
					<polygon style="fill:#E57E5D;" points="1316.09,802.203 1516.086,821.633 1583.035,1365.727 1331.813,1365.727 					"/>
					<polygon style="fill:#CB6546;" points="1375.016,1365.727 1343.496,829.711 1520.473,847.492 1516.086,821.633 
						1316.09,802.203 1327.781,1225.613 1333.914,1365.727 					"/>
					<polygon style="fill:#75162E;" points="1459.359,609.981 807.422,609.981 743.84,803.164 1522.93,803.164 					"/>
					<polygon style="fill:#8C2B43;" points="1459.359,609.981 807.422,609.981 803.082,623.164 1498.48,728.871 					"/>
					<polygon style="fill:#A5455E;" points="1459.359,609.981 807.422,609.981 805.191,616.742 1473.094,651.766 					"/>
					<g style="opacity:0.4;">
						<polygon style="fill:#5F0525;" points="858.156,609.981 804.469,803.164 828.082,803.164 877.914,609.981 						"/>
						<polygon style="fill:#5F0525;" points="1408.621,609.981 1388.863,609.981 1438.691,803.164 1462.301,803.164 						"/>
					</g>
					<g style="opacity:0.4;">
						<polygon style="fill:#5F0525;" points="934.809,609.981 896.082,803.164 913.133,803.164 949.074,609.981 						"/>
						<polygon style="fill:#5F0525;" points="1331.961,609.981 1317.703,609.981 1353.652,803.164 1370.691,803.164 						"/>
					</g>
					<g style="opacity:0.4;">
						<polygon style="fill:#5F0525;" points="1009.816,609.981 985.719,803.164 996.32,803.164 1018.703,609.981 						"/>
						<polygon style="fill:#5F0525;" points="1256.965,609.981 1248.082,609.981 1270.453,803.164 1281.063,803.164 						"/>
					</g>
					<g style="opacity:0.4;">
						<polygon style="fill:#5F0525;" points="1084.75,609.981 1075.254,803.164 1079.434,803.164 1088.238,609.981 						"/>
						<polygon style="fill:#5F0525;" points="1182.031,609.981 1178.539,609.981 1187.332,803.164 1191.516,803.164 						"/>
					</g>
					<polygon style="fill:#F9EDC9;" points="1316.785,776.231 1536.566,798.547 1536.566,829.711 1316.785,805.086 					"/>
					<polygon style="fill:#FFCF84;" points="1339.348,1365.727 927.07,1365.727 949.98,803.164 1133.203,654.25 1316.441,803.164 
											"/>
					<polygon style="fill:#D7A052;" points="948.492,860.863 1135.535,715.434 1319.039,867.832 1316.785,805.086 1133.203,654.25 
						949.98,805.473 					"/>
					<polygon style="fill:#F9EDC9;" points="1133.203,625.391 949.625,776.613 949.98,805.473 1133.203,654.25 1316.785,805.086 
						1316.785,776.231 					"/>
					<polygon style="fill:#E57E5D;" points="949.98,803.164 751.133,821.633 681.383,1365.727 935.398,1365.727 					"/>
					<polygon style="fill:#F9EDC9;" points="949.98,776.613 730.652,798.547 730.652,829.711 949.98,805.473 					"/>
					<polygon style="fill:#CB6546;" points="745.461,865.93 948.894,839.758 949.902,805.481 750.188,828.965 					"/>
					<polygon style="fill:#CB6546;" points="681.383,1365.727 701.797,1365.727 765.699,835.758 749.348,833.816 					"/>
					<polygon style="fill:#CB6546;" points="1518.586,839.41 1504.867,835.758 1555.691,1365.727 1583.035,1365.727 					"/>
					<path style="fill:#A57535;" d="M1256.68,1365.727v-333.418c0-76.824-56.18-139.105-125.461-139.105
						c-69.273,0-125.441,62.281-125.441,139.105v333.418H1256.68z"/>
					<polygon style="fill:#774A1A;" points="1005.777,1160.809 1256.68,1258.18 1256.68,1119.035 1005.777,1103.664 					"/>
					<path style="fill:#774A1A;" d="M1042.145,934.375l214.535,145.707v-47.773c0-76.824-56.18-139.105-125.461-139.105
						C1096.395,893.203,1064.871,908.957,1042.145,934.375z"/>
					<path style="fill:#FFFFFF;" d="M1239.461,1079.059v-38.125c0-66.289-48.461-120.027-108.242-120.027
						c-59.773,0-108.238,53.738-108.238,120.027v38.125H1239.461z"/>
					<path style="fill:#5FCAE9;" d="M1228.02,1068.41v-32.992c0-57.359-43.336-103.863-96.801-103.863
						c-53.449,0-96.785,46.504-96.785,103.863v32.992H1228.02z"/>
					<path style="fill:#44ACD3;" d="M1131.219,931.555c-44.633,0-82.184,32.434-93.383,76.531c8.27,1.535,24.051,1.07,54.25-6.082
						c63.09-14.949,117.176,29.363,110.359,66.406h25.574v-32.992C1228.02,978.059,1184.684,931.555,1131.219,931.555z"/>
					<path style="fill:#227C9A;" d="M1129.293,958.363c42.313,0,78.93,23.125,96.879,56.863
						c-8.762-47.695-47.93-83.672-94.953-83.672c-43.578,0-80.434,30.914-92.555,73.422
						C1058.109,976.894,1091.43,958.363,1129.293,958.363z"/>
					<path style="fill:#B9E4EE;" d="M1082.984,945.391c-2.289,1.41-4.52,2.914-6.68,4.516l74.176,118.504h9.492L1082.984,945.391z"
						/>
					<path style="fill:#B9E4EE;" d="M1089.039,941.914l79.18,126.496h21.059l-83.395-133.234
						C1100.039,936.875,1094.402,939.129,1089.039,941.914z"/>
					<rect x="1128.266" y="926.102" style="fill:#FFFFFF;" width="8.324" height="149.496"/>
					<rect x="1029.102" y="1009.332" style="fill:#FFFFFF;" width="200.926" height="11.785"/>
					<g>
						<rect x="994.5" y="1109.453" style="fill:#EDE3C6;" width="273.445" height="20.777"/>
					</g>
					<g>
						<rect x="994.5" y="1109.453" style="fill:#CDBC94;" width="273.445" height="11.738"/>
					</g>
					<rect x="984.777" y="1087.137" style="fill:#FFF9E9;" width="292.895" height="28.477"/>
					<rect x="964.844" y="1344.184" style="fill:#FFF9E9;" width="336.715" height="21.543"/>
					<rect x="974.559" y="1322.637" style="fill:#FFF9E9;" width="317.293" height="21.547"/>
					<rect x="974.559" y="1334.941" style="fill:#D8CFB9;" width="317.293" height="9.242"/>
					<g>
						<rect x="995.387" y="1301.09" style="fill:#FFF9E9;" width="275.641" height="21.547"/>
						<rect x="995.387" y="1313.395" style="fill:#D8CFB9;" width="275.641" height="9.242"/>
					</g>
					<rect x="1063.105" y="1153.309" style="fill:#FFF6E5;" width="128.41" height="147.781"/>
					<rect x="1063.105" y="1153.309" style="fill:#E3D7BD;" width="128.41" height="16.559"/>
					<rect x="1058.25" y="1153.309" style="fill:#FFFFFF;" width="137.938" height="10.016"/>
					<g>
						<rect x="1073.313" y="1179.484" style="fill:#EDE3C6;" width="48.934" height="48.48"/>
						<rect x="1073.313" y="1179.484" style="fill:#DACFB2;" width="48.934" height="5.781"/>
						<rect x="1132.379" y="1179.484" style="fill:#EDE3C6;" width="48.93" height="48.48"/>
						<rect x="1132.379" y="1179.484" style="fill:#DACFB2;" width="48.93" height="5.781"/>
					</g>
					<g>
						<rect x="1073.313" y="1235.668" style="fill:#EDE3C6;" width="48.934" height="48.484"/>
						<rect x="1073.313" y="1235.668" style="fill:#DACFB2;" width="48.934" height="5.77"/>
						<rect x="1132.379" y="1235.668" style="fill:#EDE3C6;" width="48.93" height="48.484"/>
						<rect x="1132.379" y="1235.668" style="fill:#DACFB2;" width="48.93" height="5.77"/>
					</g>
				</g>
				<path style="fill:#BA833D;" d="M1190.449,808.898c0,31.555-25.578,57.141-57.133,57.141c-31.566,0-57.145-25.586-57.145-57.141
					c0-31.555,25.578-57.137,57.145-57.137C1164.871,751.762,1190.449,777.344,1190.449,808.898z"/>
				<path style="fill:#FFFFFF;" d="M1190.449,800.281c0,31.559-25.578,57.137-57.133,57.137c-31.566,0-57.145-25.578-57.145-57.137
					c0-31.558,25.578-57.137,57.145-57.137C1164.871,743.144,1190.449,768.723,1190.449,800.281z"/>
				<path style="fill:none;stroke:#A46731;stroke-width:1.8112;stroke-miterlimit:10;" d="M1185.824,800.281
					c0,29.008-23.5,52.52-52.508,52.52c-29.012,0-52.52-23.512-52.52-52.52c0-29.008,23.508-52.519,52.52-52.519
					C1162.324,747.762,1185.824,771.273,1185.824,800.281z"/>
				<polygon style="fill:#0D0000;" points="1133.027,763.496 1127.828,780.656 1133.027,804.652 1138.227,780.656 				"/>
				<polygon style="fill:#0D0000;" points="1180.211,803.754 1150.496,801.07 1133.02,804.652 1150.633,807.184 				"/>
				<path style="fill:#0D0000;" d="M1137.063,805.18c0,2.234-1.813,4.043-4.035,4.043c-2.227,0-4.043-1.809-4.043-4.043
					c0-2.227,1.816-4.035,4.043-4.035C1135.25,801.144,1137.063,802.953,1137.063,805.18z"/>
			</g>
			<g>
				<g>
					<path style="fill:#FFFFFF;" d="M904.074,1048.199l1.363-113.516c0.383-31.199-20.309-56.484-46.203-56.484
						c-25.898,0-49.645,25.285-53.063,56.484l-12.402,113.516H904.074z"/>
				</g>
				<g>
					<path style="fill:#5FCAE9;" d="M898.184,1039.422l1.762-101.082c0.477-27.777-18.012-50.297-41.309-50.297
						c-23.297,0-44.512,22.519-47.41,50.297l-10.504,101.082H898.184z"/>
				</g>
				<path style="fill:#227C9A;" d="M858.637,888.043c-23.297,0-44.512,22.519-47.41,50.297l-3.758,36.172
					c2.887-27.781,24.809-50.297,48.973-50.297c24.152,0,43.363,22.516,42.875,50.297l0.629-36.172
					C900.422,910.563,881.934,888.043,858.637,888.043z"/>
				<g>
					<path style="fill:#44ACD3;" d="M857.742,902.797c-23.652,0-45.16,22.523-48.047,50.301l-2.227,21.414
						c2.887-27.781,24.809-50.297,48.973-50.297c24.152,0,43.363,22.516,42.875,50.297l0.375-21.414
						C900.164,925.32,881.383,902.797,857.742,902.797z"/>
				</g>
				<g>
					<polygon style="fill:#F8A491;" points="917.73,1061.887 778.461,1061.887 780.117,1048.199 917.73,1048.199 					"/>
				</g>
				<g>
					<polygon style="fill:#FFFFFF;" points="901.902,957.965 806.879,957.965 807.719,950.082 902.027,950.082 					"/>
				</g>
				<polygon style="fill:#FFFFFF;" points="853.555,1043.234 846.352,1043.234 856.578,881.188 862.746,881.188 				"/>
				<polygon style="fill:#BD5539;" points="912.297,1075.598 780.688,1075.598 782.309,1061.887 912.359,1061.887 				"/>
			</g>
			<g>
				<g>
					<path style="fill:#FFFFFF;" d="M878.922,1286l1.375-113.52c0.367-31.191-20.32-56.484-46.215-56.484
						c-25.898,0-49.664,25.293-53.066,56.484L768.617,1286H878.922z"/>
				</g>
				<g>
					<path style="fill:#5FCAE9;" d="M873.039,1277.227l1.754-101.09c0.48-27.77-18.02-50.293-41.313-50.293
						c-23.289,0-44.512,22.523-47.391,50.293l-10.516,101.09H873.039z"/>
				</g>
				<path style="fill:#227C9A;" d="M833.48,1125.844c-23.289,0-44.512,22.523-47.391,50.293l-3.773,36.176
					c2.879-27.781,24.82-50.301,48.973-50.301c24.164,0,43.359,22.52,42.875,50.301l0.629-36.176
					C875.273,1148.367,856.773,1125.844,833.48,1125.844z"/>
				<g>
					<path style="fill:#44ACD3;" d="M832.582,1140.602c-23.637,0-45.144,22.523-48.047,50.297l-2.219,21.414
						c2.879-27.781,24.82-50.301,48.973-50.301c24.164,0,43.359,22.52,42.875,50.301l0.375-21.414
						C875.019,1163.125,856.234,1140.602,832.582,1140.602z"/>
				</g>
				<g>
					<polygon style="fill:#F8A491;" points="892.574,1299.684 753.305,1299.684 754.961,1286 892.574,1286 					"/>
				</g>
				<g>
					<polygon style="fill:#FFFFFF;" points="876.766,1195.762 781.734,1195.762 782.566,1187.879 876.875,1187.879 					"/>
				</g>
				<polygon style="fill:#FFFFFF;" points="828.383,1281.039 821.188,1281.039 831.434,1118.988 837.594,1118.988 				"/>
				<polygon style="fill:#BD5539;" points="887.141,1313.395 755.531,1313.395 757.152,1299.684 887.215,1299.684 				"/>
			</g>
			<g>
				<g>
					<path style="fill:#FFFFFF;" d="M1385.703,1048.199l-1.371-113.516c-0.375-31.199,20.32-56.484,46.215-56.484
						s49.656,25.285,53.066,56.484l12.395,113.516H1385.703z"/>
				</g>
				<g>
					<path style="fill:#5FCAE9;" d="M1391.586,1039.422l-1.75-101.082c-0.484-27.777,18.016-50.297,41.309-50.297
						s44.527,22.519,47.398,50.297l10.512,101.082H1391.586z"/>
				</g>
				<path style="fill:#227C9A;" d="M1431.145,888.043c23.293,0,44.527,22.519,47.398,50.297l3.758,36.172
					c-2.867-27.781-24.809-50.297-48.961-50.297c-24.168,0-43.363,22.516-42.875,50.297l-0.629-36.172
					C1389.352,910.563,1407.852,888.043,1431.145,888.043z"/>
				<g>
					<path style="fill:#44ACD3;" d="M1432.027,902.797c23.656,0,45.16,22.523,48.063,50.301l2.211,21.414
						c-2.867-27.781-24.809-50.297-48.961-50.297c-24.168,0-43.363,22.516-42.875,50.297l-0.371-21.414
						C1389.605,925.32,1408.395,902.797,1432.027,902.797z"/>
				</g>
				<g>
					<polygon style="fill:#F8A491;" points="1372.051,1061.887 1511.32,1061.887 1509.668,1048.199 1372.051,1048.199 					"/>
				</g>
				<g>
					<polygon style="fill:#FFFFFF;" points="1387.867,957.965 1482.906,957.965 1482.063,950.082 1387.742,950.082 					"/>
				</g>
				<polygon style="fill:#FFFFFF;" points="1436.242,1043.234 1443.43,1043.234 1433.191,881.188 1427.035,881.188 				"/>
				<polygon style="fill:#BD5539;" points="1377.473,1075.598 1509.098,1075.598 1507.477,1061.887 1377.422,1061.887 				"/>
			</g>
			<g>
				<g>
					<path style="fill:#FFFFFF;" d="M1410.852,1286l-1.363-113.52c-0.371-31.191,20.305-56.484,46.207-56.484
						c25.895,0,49.648,25.293,53.07,56.484l12.387,113.52H1410.852z"/>
				</g>
				<g>
					<path style="fill:#5FCAE9;" d="M1416.746,1277.227l-1.754-101.09c-0.477-27.77,18.004-50.293,41.301-50.293
						s44.52,22.523,47.414,50.293l10.504,101.09H1416.746z"/>
				</g>
				<path style="fill:#227C9A;" d="M1456.293,1125.844c23.297,0,44.52,22.523,47.414,50.293l3.758,36.176
					c-2.891-27.781-24.82-50.301-48.973-50.301c-24.168,0-43.359,22.52-42.875,50.301l-0.625-36.176
					C1414.516,1148.367,1432.996,1125.844,1456.293,1125.844z"/>
				<g>
					<path style="fill:#44ACD3;" d="M1457.188,1140.602c23.648,0,45.168,22.523,48.043,50.297l2.234,21.414
						c-2.891-27.781-24.82-50.301-48.973-50.301c-24.168,0-43.359,22.52-42.875,50.301l-0.375-21.414
						C1414.766,1163.125,1433.535,1140.602,1457.188,1140.602z"/>
				</g>
				<g>
					<polygon style="fill:#F8A491;" points="1397.203,1299.684 1536.469,1299.684 1534.813,1286 1397.203,1286 					"/>
				</g>
				<g>
					<polygon style="fill:#FFFFFF;" points="1413.02,1195.762 1508.047,1195.762 1507.215,1187.879 1412.895,1187.879 					"/>
				</g>
				<polygon style="fill:#FFFFFF;" points="1461.387,1281.039 1468.582,1281.039 1458.352,1118.988 1452.18,1118.988 				"/>
				<polygon style="fill:#BD5539;" points="1402.637,1313.395 1534.238,1313.395 1532.637,1299.684 1402.566,1299.684 				"/>
			</g>
		</g>
	</g>
	<g>
		<g>
			<rect x="295.738" y="1376.766" style="fill:#8E8783;" width="5.867" height="46.184"/>
			<polygon style="fill:#6B6561;" points="295.738,1390.785 299.598,1392.332 299.598,1422.949 301.605,1422.949 301.605,1382.414 
				295.738,1382.414 			"/>
			<rect x="309.887" y="1364.492" style="fill:#8E8783;" width="4.227" height="46.184"/>
			<polygon style="fill:#6B6561;" points="309.887,1388.547 312.859,1389.879 312.859,1410.676 314.113,1410.676 314.113,1382.648 
				309.887,1383.105 			"/>
		</g>
		<g>
			<rect x="465.082" y="1376.766" style="fill:#8E8783;" width="5.863" height="46.184"/>
			<polygon style="fill:#6B6561;" points="470.945,1380.082 465.082,1379.852 465.082,1422.949 466.672,1422.949 466.672,1391.105 
				470.945,1389.809 			"/>
			<rect x="452.566" y="1364.492" style="fill:#8E8783;" width="4.23" height="46.184"/>
			<polygon style="fill:#6B6561;" points="456.797,1381.961 452.566,1382.426 452.566,1410.676 453.641,1410.676 453.641,1389.652 
				456.797,1388.457 			"/>
		</g>
		<path style="fill:#6E2F15;" d="M473.605,1362.258H291.074v3.074h183.582v-1.215
			C474.27,1363.523,473.926,1362.902,473.605,1362.258z"/>
		<path style="fill:#6E2F15;" d="M483.664,1374.895c-0.82-0.941-1.664-1.867-2.504-2.797H282.652v3.078h201.035v-0.266
			C483.672,1374.906,483.664,1374.898,483.664,1374.895z"/>
		<path style="fill:#6E2F15;" d="M488.641,1381.945H274.227v3.078h216.133v-1.648
			C489.703,1383.059,489.121,1382.559,488.641,1381.945z"/>
		<rect x="309.887" y="1291.559" style="fill:#8E8783;" width="4.227" height="67.578"/>
		<rect x="309.887" y="1333.852" style="fill:#6B6561;" width="4.227" height="9.246"/>
		<rect x="309.887" y="1315.691" style="fill:#6B6561;" width="4.227" height="8.242"/>
		<rect x="309.887" y="1291.559" style="fill:#6B6561;" width="4.227" height="14.894"/>
		<g>
			<rect x="452.453" y="1291.559" style="fill:#8E8783;" width="4.23" height="67.578"/>
			<rect x="452.453" y="1333.852" style="fill:#6B6561;" width="4.23" height="9.246"/>
			<rect x="452.453" y="1315.691" style="fill:#6B6561;" width="4.23" height="8.242"/>
			<rect x="452.453" y="1291.559" style="fill:#6B6561;" width="4.23" height="14.894"/>
		</g>
		<g>
			<path style="fill:#BD693C;" d="M364.066,1303.742h107.73v-2.242C457.496,1299.363,403.023,1301.691,364.066,1303.742z"/>
			<g>
				<rect x="294.773" y="1290.078" style="fill:#D57D49;" width="177.023" height="13.664"/>
				<path style="fill:#BD693C;" d="M294.773,1297.945c89.848-6.297,162.453-3.719,177.023-3.09v-2.965
					c-23.512-2.961-149.75,1.805-177.023,2.879V1297.945z"/>
				<rect x="294.773" y="1290.078" style="fill:#F9A781;" width="177.023" height="1.48"/>
				<path style="fill:#BD693C;" d="M294.773,1302.73c34.258-3.168,155.977-3.906,177.023-4.012v-1.195
					c-25.094-2.266-151.434,1.977-177.023,2.859V1302.73z"/>
				<rect x="294.773" y="1302.73" style="fill:#9B502A;" width="177.023" height="1.012"/>
			</g>
			<g>
				<rect x="294.773" y="1307.754" style="fill:#D57D49;" width="177.023" height="13.66"/>
				<path style="fill:#BD693C;" d="M294.773,1315.621c89.848-6.301,162.453-3.723,177.023-3.094v-2.961
					c-23.512-2.969-149.75,1.797-177.023,2.879V1315.621z"/>
				<rect x="294.773" y="1307.754" style="fill:#F9A781;" width="177.023" height="1.48"/>
				<path style="fill:#BD693C;" d="M294.773,1320.402c34.258-3.164,155.977-3.902,177.023-4.008v-1.195
					c-25.094-2.27-151.434,1.969-177.023,2.863V1320.402z"/>
				<rect x="294.773" y="1320.402" style="fill:#9B502A;" width="177.023" height="1.012"/>
			</g>
			<g>
				<rect x="294.773" y="1325.426" style="fill:#D57D49;" width="177.023" height="13.664"/>
				<path style="fill:#BD693C;" d="M294.773,1333.289c89.848-6.297,162.453-3.715,177.023-3.086v-2.969
					c-23.512-2.957-149.75,1.805-177.023,2.887V1333.289z"/>
				<rect x="294.773" y="1325.426" style="fill:#F9A781;" width="177.023" height="1.48"/>
				<path style="fill:#BD693C;" d="M294.773,1338.074c34.258-3.164,155.977-3.902,177.023-4.004v-1.195
					c-25.094-2.273-151.434,1.969-177.023,2.855V1338.074z"/>
				<rect x="294.773" y="1338.074" style="fill:#9B502A;" width="177.023" height="1.016"/>
			</g>
			<g>
				<path style="fill:#8E8783;" d="M296.258,1340.273c0,0.246-0.191,0.449-0.445,0.449h-2.078c-0.25,0-0.449-0.203-0.449-0.449
					v-51.234c0-0.25,0.199-0.449,0.449-0.449h2.078c0.254,0,0.445,0.199,0.445,0.449V1340.273z"/>
				<path style="fill:#C1B8B3;" d="M294.617,1288.59h-0.883c-0.25,0-0.449,0.199-0.449,0.449v51.234
					c0,0.246,0.199,0.449,0.449,0.449h0.883V1288.59z"/>
				<path style="fill:#68625D;" d="M295.813,1288.59h-0.594v52.133h0.594c0.254,0,0.445-0.203,0.445-0.449v-51.234
					C296.258,1288.789,296.066,1288.59,295.813,1288.59z"/>
			</g>
			<g>
				<path style="fill:#8E8783;" d="M471.059,1340.273c0,0.246,0.199,0.449,0.445,0.449h2.078c0.242,0,0.445-0.203,0.445-0.449
					v-51.234c0-0.25-0.203-0.449-0.445-0.449h-2.078c-0.246,0-0.445,0.199-0.445,0.449V1340.273z"/>
				<path style="fill:#C1B8B3;" d="M472.691,1288.59h0.891c0.242,0,0.445,0.199,0.445,0.449v51.234c0,0.246-0.203,0.449-0.445,0.449
					h-0.891V1288.59z"/>
				<path style="fill:#68625D;" d="M471.504,1288.59h0.594v52.133h-0.594c-0.246,0-0.445-0.203-0.445-0.449v-51.234
					C471.059,1288.789,471.258,1288.59,471.504,1288.59z"/>
			</g>
			<g>
				<g>
					<g>
						<path style="fill:#8C4223;" d="M314.113,1297.5c0,1.168-0.945,2.113-2.117,2.113c-1.168,0-2.109-0.945-2.109-2.113
							c0-1.172,0.941-2.117,2.109-2.117C313.168,1295.383,314.113,1296.328,314.113,1297.5z"/>
						<g>
							<path style="fill:#B3CBD1;" d="M314.113,1296.762c0,1.168-0.945,2.113-2.117,2.113c-1.168,0-2.109-0.945-2.109-2.113
								s0.941-2.121,2.109-2.121C313.168,1294.641,314.113,1295.594,314.113,1296.762z"/>
							<path style="fill:#819CA3;" d="M311.996,1297.707c-0.969,0-1.77-0.648-2.016-1.531c-0.063,0.184-0.094,0.383-0.094,0.586
								c0,1.168,0.941,2.113,2.109,2.113c1.172,0,2.117-0.945,2.117-2.113c0-0.203-0.039-0.402-0.09-0.586
								C313.773,1297.059,312.961,1297.707,311.996,1297.707z"/>
							<path style="fill:#516A6F;" d="M311.996,1298.559c-1.113,0-2.016-0.871-2.102-1.969c-0.008,0.059-0.008,0.113-0.008,0.172
								c0,1.168,0.941,2.113,2.109,2.113c1.172,0,2.117-0.945,2.117-2.113c0-0.059-0.008-0.113-0.008-0.172
								C314.023,1297.688,313.117,1298.559,311.996,1298.559z"/>
							<path style="fill:#FFFFFF;" d="M313.938,1296.762c0,1.066-0.871-0.113-1.941-0.113c-1.074,0-1.934,1.18-1.934,0.113
								c0-1.07,0.859-1.938,1.934-1.938C313.066,1294.824,313.938,1295.691,313.938,1296.762z"/>
						</g>
					</g>
					<g>
						<path style="fill:#8C4223;" d="M314.113,1315.32c0,1.168-0.945,2.117-2.117,2.117c-1.168,0-2.109-0.949-2.109-2.117
							c0-1.164,0.941-2.117,2.109-2.117C313.168,1313.203,314.113,1314.156,314.113,1315.32z"/>
						<g>
							<path style="fill:#B3CBD1;" d="M314.113,1314.582c0,1.168-0.945,2.121-2.117,2.121c-1.168,0-2.109-0.953-2.109-2.121
								c0-1.172,0.941-2.117,2.109-2.117C313.168,1312.465,314.113,1313.41,314.113,1314.582z"/>
							<path style="fill:#819CA3;" d="M311.996,1315.527c-0.969,0-1.77-0.645-2.016-1.527c-0.063,0.188-0.094,0.375-0.094,0.582
								c0,1.168,0.941,2.121,2.109,2.121c1.172,0,2.117-0.953,2.117-2.121c0-0.207-0.039-0.395-0.09-0.582
								C313.773,1314.883,312.961,1315.527,311.996,1315.527z"/>
							<path style="fill:#516A6F;" d="M311.996,1316.379c-1.113,0-2.016-0.871-2.102-1.965c-0.008,0.051-0.008,0.109-0.008,0.168
								c0,1.168,0.941,2.121,2.109,2.121c1.172,0,2.117-0.953,2.117-2.121c0-0.059-0.008-0.117-0.008-0.168
								C314.023,1315.508,313.117,1316.379,311.996,1316.379z"/>
							<path style="fill:#FFFFFF;" d="M313.938,1314.582c0,1.063-0.871-0.117-1.941-0.117c-1.074,0-1.934,1.18-1.934,0.117
								c0-1.07,0.859-1.934,1.934-1.934C313.066,1312.648,313.938,1313.512,313.938,1314.582z"/>
						</g>
					</g>
					<g>
						<path style="fill:#8C4223;" d="M314.113,1333.59c0,1.164-0.945,2.117-2.117,2.117c-1.168,0-2.109-0.953-2.109-2.117
							c0-1.168,0.941-2.121,2.109-2.121C313.168,1331.469,314.113,1332.422,314.113,1333.59z"/>
						<g>
							<path style="fill:#B3CBD1;" d="M314.113,1332.848c0,1.168-0.945,2.113-2.117,2.113c-1.168,0-2.109-0.945-2.109-2.113
								s0.941-2.113,2.109-2.113C313.168,1330.734,314.113,1331.68,314.113,1332.848z"/>
							<path style="fill:#819CA3;" d="M311.996,1333.797c-0.969,0-1.77-0.648-2.016-1.531c-0.063,0.184-0.094,0.379-0.094,0.582
								c0,1.168,0.941,2.113,2.109,2.113c1.172,0,2.117-0.945,2.117-2.113c0-0.203-0.039-0.398-0.09-0.582
								C313.773,1333.148,312.961,1333.797,311.996,1333.797z"/>
							<path style="fill:#516A6F;" d="M311.996,1334.645c-1.113,0-2.016-0.867-2.102-1.969c-0.008,0.059-0.008,0.113-0.008,0.172
								c0,1.168,0.941,2.113,2.109,2.113c1.172,0,2.117-0.945,2.117-2.113c0-0.059-0.008-0.113-0.008-0.172
								C314.023,1333.777,313.117,1334.645,311.996,1334.645z"/>
							<path style="fill:#FFFFFF;" d="M313.938,1332.848c0,1.07-0.871-0.113-1.941-0.113c-1.074,0-1.934,1.184-1.934,0.113
								c0-1.066,0.859-1.934,1.934-1.934C313.066,1330.914,313.938,1331.781,313.938,1332.848z"/>
						</g>
					</g>
				</g>
				<g>
					<g>
						<path style="fill:#8C4223;" d="M456.684,1297.5c0,1.168-0.945,2.113-2.109,2.113c-1.176,0-2.121-0.945-2.121-2.113
							c0-1.172,0.945-2.117,2.121-2.117C455.738,1295.383,456.684,1296.328,456.684,1297.5z"/>
						<g>
							<path style="fill:#B3CBD1;" d="M456.684,1296.762c0,1.168-0.945,2.113-2.109,2.113c-1.176,0-2.121-0.945-2.121-2.113
								s0.945-2.121,2.121-2.121C455.738,1294.641,456.684,1295.594,456.684,1296.762z"/>
							<path style="fill:#819CA3;" d="M454.574,1297.707c-0.969,0-1.766-0.648-2.027-1.531c-0.051,0.184-0.094,0.383-0.094,0.586
								c0,1.168,0.945,2.113,2.121,2.113c1.164,0,2.109-0.945,2.109-2.113c0-0.203-0.031-0.402-0.082-0.586
								C456.34,1297.059,455.539,1297.707,454.574,1297.707z"/>
							<path style="fill:#516A6F;" d="M454.574,1298.559c-1.125,0-2.027-0.871-2.102-1.969c-0.008,0.059-0.02,0.113-0.02,0.172
								c0,1.168,0.945,2.113,2.121,2.113c1.164,0,2.109-0.945,2.109-2.113c0-0.059-0.008-0.113-0.008-0.172
								C456.602,1297.688,455.688,1298.559,454.574,1298.559z"/>
							<path style="fill:#FFFFFF;" d="M456.508,1296.762c0,1.066-0.863-0.113-1.934-0.113s-1.938,1.18-1.938,0.113
								c0-1.07,0.867-1.938,1.938-1.938S456.508,1295.691,456.508,1296.762z"/>
						</g>
					</g>
					<g>
						<path style="fill:#8C4223;" d="M456.684,1315.32c0,1.168-0.945,2.117-2.109,2.117c-1.176,0-2.121-0.949-2.121-2.117
							c0-1.164,0.945-2.117,2.121-2.117C455.738,1313.203,456.684,1314.156,456.684,1315.32z"/>
						<g>
							<path style="fill:#B3CBD1;" d="M456.684,1314.582c0,1.168-0.945,2.121-2.109,2.121c-1.176,0-2.121-0.953-2.121-2.121
								c0-1.172,0.945-2.117,2.121-2.117C455.738,1312.465,456.684,1313.41,456.684,1314.582z"/>
							<path style="fill:#819CA3;" d="M454.574,1315.527c-0.969,0-1.766-0.645-2.027-1.527c-0.051,0.188-0.094,0.375-0.094,0.582
								c0,1.168,0.945,2.121,2.121,2.121c1.164,0,2.109-0.953,2.109-2.121c0-0.207-0.031-0.395-0.082-0.582
								C456.34,1314.883,455.539,1315.527,454.574,1315.527z"/>
							<path style="fill:#516A6F;" d="M454.574,1316.379c-1.125,0-2.027-0.871-2.102-1.965c-0.008,0.051-0.02,0.109-0.02,0.168
								c0,1.168,0.945,2.121,2.121,2.121c1.164,0,2.109-0.953,2.109-2.121c0-0.059-0.008-0.117-0.008-0.168
								C456.602,1315.508,455.688,1316.379,454.574,1316.379z"/>
							<path style="fill:#FFFFFF;" d="M456.508,1314.582c0,1.063-0.863-0.117-1.934-0.117s-1.938,1.18-1.938,0.117
								c0-1.07,0.867-1.934,1.938-1.934S456.508,1313.512,456.508,1314.582z"/>
						</g>
					</g>
					<g>
						<path style="fill:#8C4223;" d="M456.684,1333.59c0,1.164-0.945,2.117-2.109,2.117c-1.176,0-2.121-0.953-2.121-2.117
							c0-1.168,0.945-2.121,2.121-2.121C455.738,1331.469,456.684,1332.422,456.684,1333.59z"/>
						<g>
							<path style="fill:#B3CBD1;" d="M456.684,1332.848c0,1.168-0.945,2.113-2.109,2.113c-1.176,0-2.121-0.945-2.121-2.113
								s0.945-2.113,2.121-2.113C455.738,1330.734,456.684,1331.68,456.684,1332.848z"/>
							<path style="fill:#819CA3;" d="M454.574,1333.797c-0.969,0-1.766-0.648-2.027-1.531c-0.051,0.184-0.094,0.379-0.094,0.582
								c0,1.168,0.945,2.113,2.121,2.113c1.164,0,2.109-0.945,2.109-2.113c0-0.203-0.031-0.398-0.082-0.582
								C456.34,1333.148,455.539,1333.797,454.574,1333.797z"/>
							<path style="fill:#516A6F;" d="M454.574,1334.645c-1.125,0-2.027-0.867-2.102-1.969c-0.008,0.059-0.02,0.113-0.02,0.172
								c0,1.168,0.945,2.113,2.121,2.113c1.164,0,2.109-0.945,2.109-2.113c0-0.059-0.008-0.113-0.008-0.172
								C456.602,1333.777,455.688,1334.645,454.574,1334.645z"/>
							<path style="fill:#FFFFFF;" d="M456.508,1332.848c0,1.07-0.863-0.113-1.934-0.113s-1.938,1.184-1.938,0.113
								c0-1.066,0.867-1.934,1.938-1.934S456.508,1331.781,456.508,1332.848z"/>
						</g>
					</g>
				</g>
			</g>
		</g>
		<g>
			<path style="fill:#BD693C;" d="M472.98,1360.984c-16.152-1.148-70.301,0.141-110.047,1.273h110.672
				C473.398,1361.84,473.188,1361.41,472.98,1360.984z"/>
			<g>
				<g>
					<path style="fill:#D57D49;" d="M472.699,1360.41l-6.09-5.762H297.59l-6.516,7.609h182.531
						C473.305,1361.648,473.004,1361.031,472.699,1360.41z"/>
				</g>
				<path style="fill:#BD693C;" d="M293.84,1359.027c89.629-3.508,160.934-2.07,175.574-1.719l-1.73-1.652
					c-24.043-1.652-145.18,1.004-172.328,1.602L293.84,1359.027z"/>
				<g>
					<polygon style="fill:#F9A781;" points="296.883,1355.473 467.484,1355.473 466.609,1354.648 297.59,1354.648 					"/>
				</g>
				<path style="fill:#BD693C;" d="M291.563,1361.695c36.168-1.766,158.988-2.172,180.129-2.234l-0.691-0.664
					c-26.082-1.266-152.02,1.094-178.328,1.59L291.563,1361.695z"/>
				<path style="fill:#9B502A;" d="M473.324,1361.695H291.563l-0.488,0.563h182.531
					C473.512,1362.07,473.418,1361.883,473.324,1361.695z"/>
			</g>
			<g>
				<g>
					<path style="fill:#D57D49;" d="M474.902,1364.492H289.16l-6.508,7.605H481.16
						C478.949,1369.668,476.723,1367.219,474.902,1364.492z"/>
				</g>
				<path style="fill:#BD693C;" d="M475.508,1365.371c-31.672-1.367-159.398,1.152-188.582,1.734l-1.504,1.766
					c94.047-3.324,169.953-2.203,191.375-1.781C476.348,1366.527,475.922,1365.957,475.508,1365.371z"/>
				<g>
					<path style="fill:#F9A781;" d="M474.902,1364.492H289.16l-0.695,0.824h187C475.277,1365.043,475.09,1364.773,474.902,1364.492z
						"/>
				</g>
				<path style="fill:#BD693C;" d="M477.969,1368.523c-34.953-0.988-165.703,1.23-193.715,1.711l-1.121,1.305
					c38.184-1.695,164.582-2.141,195.523-2.227C478.426,1369.055,478.195,1368.789,477.969,1368.523z"/>
				<path style="fill:#9B502A;" d="M480.641,1371.539H283.133l-0.48,0.559H481.16C480.988,1371.91,480.816,1371.73,480.641,1371.539
					z"/>
			</g>
			<g>
				<g>
					<path style="fill:#D57D49;" d="M487.594,1380.559c-0.582-0.742-1.172-1.484-1.723-2.262c-0.656-0.938-1.211-1.895-1.684-2.898
						c-0.031-0.027-0.066-0.047-0.094-0.07h-0.406v-0.418c-0.016-0.004-0.023-0.012-0.023-0.016c-0.164-0.188-0.332-0.375-0.5-0.563
						H280.742l-6.516,7.613h214.414c-0.039-0.047-0.07-0.094-0.109-0.141C488.027,1381.109,488.145,1381.266,487.594,1380.559z"/>
				</g>
				<path style="fill:#BD693C;" d="M484.094,1375.328h-0.406v-0.184c-37.773-1.207-173.77,1.238-205.18,1.805l-1.516,1.77
					c100.449-3.242,182.121-2.266,207.992-1.816c-0.289-0.488-0.559-0.992-0.797-1.504
					C484.156,1375.371,484.121,1375.352,484.094,1375.328z"/>
				<g>
					<path style="fill:#F9A781;" d="M483.664,1374.895c-0.164-0.188-0.332-0.375-0.5-0.563H280.742l-0.707,0.828h203.652v-0.25
						C483.672,1374.906,483.664,1374.898,483.664,1374.895z"/>
				</g>
				<path style="fill:#BD693C;" d="M485.887,1378.313c-41.207-0.852-179.973,1.289-210.063,1.762l-1.109,1.305
					c40.813-1.656,174.473-2.117,211.801-2.211C486.309,1378.879,486.086,1378.605,485.887,1378.313z"/>
				<path style="fill:#9B502A;" d="M488.531,1381.805c-0.148-0.195-0.227-0.32-0.301-0.426H274.715l-0.488,0.566h214.414
					C488.602,1381.898,488.57,1381.852,488.531,1381.805z"/>
			</g>
		</g>
		<g>
			<rect x="273.141" y="1381.945" style="fill:#675E57;" width="3.07" height="3.078"/>
			<polygon style="fill:#C1B8B3;" points="276.211,1381.945 273.141,1381.945 295.793,1354.648 298.867,1354.648 			"/>
		</g>
		<g>
			<rect x="488.27" y="1381.945" style="fill:#675E57;" width="3.066" height="3.078"/>
			<polygon style="fill:#C1B8B3;" points="488.27,1381.945 491.336,1381.945 468.688,1354.648 465.613,1354.648 			"/>
		</g>
	</g>
	<g>
		<g>
			<rect x="1780.066" y="1378.98" style="fill:#8E8783;" width="5.875" height="46.187"/>
			<polygon style="fill:#6B6561;" points="1780.066,1393 1783.934,1394.551 1783.934,1425.168 1785.941,1425.168 1785.941,1384.633 
				1780.066,1384.633 			"/>
			<rect x="1794.223" y="1366.703" style="fill:#8E8783;" width="4.23" height="46.184"/>
			<polygon style="fill:#6B6561;" points="1794.223,1390.762 1797.188,1392.09 1797.188,1412.887 1798.453,1412.887 
				1798.453,1384.867 1794.223,1385.324 			"/>
		</g>
		<g>
			<rect x="1949.422" y="1378.98" style="fill:#8E8783;" width="5.859" height="46.187"/>
			<polygon style="fill:#6B6561;" points="1955.281,1382.297 1949.422,1382.066 1949.422,1425.168 1951.012,1425.168 
				1951.012,1393.316 1955.281,1392.023 			"/>
			<rect x="1936.906" y="1366.703" style="fill:#8E8783;" width="4.23" height="46.184"/>
			<polygon style="fill:#6B6561;" points="1941.137,1384.18 1936.906,1384.645 1936.906,1412.887 1937.977,1412.887 
				1937.977,1391.867 1941.137,1390.672 			"/>
		</g>
		<path style="fill:#6E2F15;" d="M1957.945,1364.477H1775.41v3.07h183.574v-1.211
			C1958.609,1365.742,1958.266,1365.121,1957.945,1364.477z"/>
		<path style="fill:#6E2F15;" d="M1968.004,1377.109c-0.82-0.938-1.664-1.867-2.504-2.793h-198.508v3.078h201.023v-0.266
			C1968.016,1377.117,1968.004,1377.117,1968.004,1377.109z"/>
		<path style="fill:#6E2F15;" d="M1972.984,1384.16h-214.422v3.082h216.137v-1.648
			C1974.043,1385.277,1973.461,1384.777,1972.984,1384.16z"/>
		<rect x="1794.223" y="1293.777" style="fill:#8E8783;" width="4.23" height="67.574"/>
		<rect x="1794.223" y="1336.07" style="fill:#6B6561;" width="4.23" height="9.238"/>
		<rect x="1794.223" y="1317.91" style="fill:#6B6561;" width="4.23" height="8.242"/>
		<rect x="1794.223" y="1293.777" style="fill:#6B6561;" width="4.23" height="14.891"/>
		<g>
			<rect x="1936.793" y="1293.777" style="fill:#8E8783;" width="4.23" height="67.574"/>
			<rect x="1936.793" y="1336.07" style="fill:#6B6561;" width="4.23" height="9.238"/>
			<rect x="1936.793" y="1317.91" style="fill:#6B6561;" width="4.23" height="8.242"/>
			<rect x="1936.793" y="1293.777" style="fill:#6B6561;" width="4.23" height="14.891"/>
		</g>
		<g>
			<path style="fill:#BD693C;" d="M1848.406,1305.953h107.73v-2.238C1941.832,1301.578,1887.359,1303.906,1848.406,1305.953z"/>
			<g>
				<rect x="1779.113" y="1292.297" style="fill:#D57D49;" width="177.023" height="13.656"/>
				<path style="fill:#BD693C;" d="M1779.113,1300.164c89.852-6.297,162.449-3.719,177.023-3.09v-2.969
					c-23.512-2.961-149.754,1.805-177.023,2.879V1300.164z"/>
				<rect x="1779.113" y="1292.297" style="fill:#F9A781;" width="177.023" height="1.48"/>
				<path style="fill:#BD693C;" d="M1779.113,1304.945c34.254-3.164,155.977-3.902,177.023-4.008v-1.195
					c-25.09-2.269-151.445,1.973-177.023,2.859V1304.945z"/>
				<rect x="1779.113" y="1304.945" style="fill:#9B502A;" width="177.023" height="1.008"/>
			</g>
			<g>
				<rect x="1779.113" y="1309.965" style="fill:#D57D49;" width="177.023" height="13.664"/>
				<path style="fill:#BD693C;" d="M1779.113,1317.836c89.852-6.301,162.449-3.723,177.023-3.09v-2.965
					c-23.512-2.965-149.754,1.801-177.023,2.883V1317.836z"/>
				<rect x="1779.113" y="1309.965" style="fill:#F9A781;" width="177.023" height="1.488"/>
				<path style="fill:#BD693C;" d="M1779.113,1322.621c34.254-3.164,155.977-3.902,177.023-4.008v-1.199
					c-25.09-2.266-151.445,1.969-177.023,2.863V1322.621z"/>
				<rect x="1779.113" y="1322.621" style="fill:#9B502A;" width="177.023" height="1.008"/>
			</g>
			<g>
				<rect x="1779.113" y="1327.641" style="fill:#D57D49;" width="177.023" height="13.664"/>
				<path style="fill:#BD693C;" d="M1779.113,1335.508c89.852-6.297,162.449-3.719,177.023-3.09v-2.965
					c-23.512-2.961-149.754,1.805-177.023,2.879V1335.508z"/>
				<rect x="1779.113" y="1327.641" style="fill:#F9A781;" width="177.023" height="1.48"/>
				<path style="fill:#BD693C;" d="M1779.113,1340.293c34.254-3.168,155.977-3.906,177.023-4.012v-1.195
					c-25.09-2.266-151.445,1.973-177.023,2.859V1340.293z"/>
				<rect x="1779.113" y="1340.293" style="fill:#9B502A;" width="177.023" height="1.012"/>
			</g>
			<g>
				<path style="fill:#8E8783;" d="M1780.586,1342.488c0,0.25-0.195,0.445-0.434,0.445h-2.09c-0.238,0-0.438-0.195-0.438-0.445
					v-51.234c0-0.246,0.199-0.449,0.438-0.449h2.09c0.238,0,0.434,0.203,0.434,0.449V1342.488z"/>
				<path style="fill:#C1B8B3;" d="M1778.957,1290.805h-0.895c-0.238,0-0.438,0.203-0.438,0.449v51.234
					c0,0.25,0.199,0.445,0.438,0.445h0.895V1290.805z"/>
				<path style="fill:#68625D;" d="M1780.152,1290.805h-0.605v52.129h0.605c0.238,0,0.434-0.195,0.434-0.445v-51.234
					C1780.586,1291.008,1780.391,1290.805,1780.152,1290.805z"/>
			</g>
			<g>
				<path style="fill:#8E8783;" d="M1955.398,1342.488c0,0.25,0.195,0.445,0.445,0.445h2.078c0.238,0,0.438-0.195,0.438-0.445
					v-51.234c0-0.246-0.199-0.449-0.438-0.449h-2.078c-0.25,0-0.445,0.203-0.445,0.449V1342.488z"/>
				<path style="fill:#C1B8B3;" d="M1957.027,1290.805h0.895c0.238,0,0.438,0.203,0.438,0.449v51.234
					c0,0.25-0.199,0.445-0.438,0.445h-0.895V1290.805z"/>
				<path style="fill:#68625D;" d="M1955.844,1290.805h0.594v52.129h-0.594c-0.25,0-0.445-0.195-0.445-0.445v-51.234
					C1955.398,1291.008,1955.594,1290.805,1955.844,1290.805z"/>
			</g>
			<g>
				<g>
					<g>
						<path style="fill:#8C4223;" d="M1798.453,1299.719c0,1.168-0.957,2.113-2.121,2.113s-2.109-0.945-2.109-2.113
							s0.945-2.121,2.109-2.121S1798.453,1298.551,1798.453,1299.719z"/>
						<g>
							<path style="fill:#B3CBD1;" d="M1798.453,1298.98c0,1.164-0.957,2.109-2.121,2.109s-2.109-0.945-2.109-2.109
								c0-1.176,0.945-2.121,2.109-2.121S1798.453,1297.805,1798.453,1298.98z"/>
							<path style="fill:#819CA3;" d="M1796.332,1299.922c-0.965,0-1.766-0.652-2.023-1.535c-0.055,0.191-0.086,0.387-0.086,0.594
								c0,1.164,0.945,2.109,2.109,2.109s2.121-0.945,2.121-2.109c0-0.207-0.039-0.402-0.094-0.594
								C1798.102,1299.27,1797.301,1299.922,1796.332,1299.922z"/>
							<path style="fill:#516A6F;" d="M1796.332,1300.777c-1.121,0-2.023-0.879-2.098-1.973c-0.012,0.055-0.012,0.113-0.012,0.176
								c0,1.164,0.945,2.109,2.109,2.109s2.121-0.945,2.121-2.109c0-0.063-0.008-0.121-0.02-0.176
								C1798.359,1299.898,1797.457,1300.777,1796.332,1300.777z"/>
							<path style="fill:#FFFFFF;" d="M1798.266,1298.98c0,1.066-0.859-0.121-1.934-0.121c-1.07,0-1.93,1.188-1.93,0.121
								c0-1.07,0.859-1.938,1.93-1.938C1797.406,1297.043,1798.266,1297.91,1798.266,1298.98z"/>
						</g>
					</g>
					<g>
						<path style="fill:#8C4223;" d="M1798.453,1317.539c0,1.168-0.957,2.113-2.121,2.113s-2.109-0.945-2.109-2.113
							c0-1.172,0.945-2.117,2.109-2.117S1798.453,1316.367,1798.453,1317.539z"/>
						<g>
							<path style="fill:#B3CBD1;" d="M1798.453,1316.793c0,1.176-0.957,2.121-2.121,2.121s-2.109-0.945-2.109-2.121
								c0-1.164,0.945-2.109,2.109-2.109S1798.453,1315.629,1798.453,1316.793z"/>
							<path style="fill:#819CA3;" d="M1796.332,1317.746c-0.965,0-1.766-0.648-2.023-1.535c-0.055,0.188-0.086,0.383-0.086,0.582
								c0,1.176,0.945,2.121,2.109,2.121s2.121-0.945,2.121-2.121c0-0.199-0.039-0.395-0.094-0.582
								C1798.102,1317.098,1797.301,1317.746,1796.332,1317.746z"/>
							<path style="fill:#516A6F;" d="M1796.332,1318.594c-1.121,0-2.023-0.867-2.098-1.965c-0.012,0.051-0.012,0.113-0.012,0.164
								c0,1.176,0.945,2.121,2.109,2.121s2.121-0.945,2.121-2.121c0-0.051-0.008-0.113-0.02-0.164
								C1798.359,1317.727,1797.457,1318.594,1796.332,1318.594z"/>
							<path style="fill:#FFFFFF;" d="M1798.266,1316.793c0,1.074-0.859-0.113-1.934-0.113c-1.07,0-1.93,1.188-1.93,0.113
								c0-1.063,0.859-1.93,1.93-1.93C1797.406,1314.863,1798.266,1315.73,1798.266,1316.793z"/>
						</g>
					</g>
					<g>
						<path style="fill:#8C4223;" d="M1798.453,1335.809c0,1.164-0.957,2.117-2.121,2.117s-2.109-0.953-2.109-2.117
							c0-1.168,0.945-2.117,2.109-2.117S1798.453,1334.641,1798.453,1335.809z"/>
						<g>
							<path style="fill:#B3CBD1;" d="M1798.453,1335.063c0,1.172-0.957,2.121-2.121,2.121s-2.109-0.949-2.109-2.121
								c0-1.164,0.945-2.117,2.109-2.117S1798.453,1333.898,1798.453,1335.063z"/>
							<path style="fill:#819CA3;" d="M1796.332,1336.012c-0.965,0-1.766-0.648-2.023-1.527c-0.055,0.184-0.086,0.375-0.086,0.578
								c0,1.172,0.945,2.121,2.109,2.121s2.121-0.949,2.121-2.121c0-0.203-0.039-0.395-0.094-0.578
								C1798.102,1335.363,1797.301,1336.012,1796.332,1336.012z"/>
							<path style="fill:#516A6F;" d="M1796.332,1336.859c-1.121,0-2.023-0.867-2.098-1.969c-0.012,0.063-0.012,0.113-0.012,0.172
								c0,1.172,0.945,2.121,2.109,2.121s2.121-0.949,2.121-2.121c0-0.059-0.008-0.109-0.02-0.172
								C1798.359,1335.992,1797.457,1336.859,1796.332,1336.859z"/>
							<path style="fill:#FFFFFF;" d="M1798.266,1335.063c0,1.07-0.859-0.109-1.934-0.109c-1.07,0-1.93,1.18-1.93,0.109
								c0-1.066,0.859-1.93,1.93-1.93C1797.406,1333.133,1798.266,1333.996,1798.266,1335.063z"/>
						</g>
					</g>
				</g>
				<g>
					<g>
						<path style="fill:#8C4223;" d="M1941.023,1299.719c0,1.168-0.945,2.113-2.109,2.113c-1.176,0-2.121-0.945-2.121-2.113
							s0.945-2.121,2.121-2.121C1940.078,1297.598,1941.023,1298.551,1941.023,1299.719z"/>
						<g>
							<path style="fill:#B3CBD1;" d="M1941.023,1298.98c0,1.164-0.945,2.109-2.109,2.109c-1.176,0-2.121-0.945-2.121-2.109
								c0-1.176,0.945-2.121,2.121-2.121C1940.078,1296.859,1941.023,1297.805,1941.023,1298.98z"/>
							<path style="fill:#819CA3;" d="M1938.914,1299.922c-0.969,0-1.777-0.652-2.027-1.535c-0.051,0.191-0.094,0.387-0.094,0.594
								c0,1.164,0.945,2.109,2.121,2.109c1.164,0,2.109-0.945,2.109-2.109c0-0.207-0.031-0.402-0.094-0.594
								C1940.68,1299.27,1939.871,1299.922,1938.914,1299.922z"/>
							<path style="fill:#516A6F;" d="M1938.914,1300.777c-1.125,0-2.027-0.879-2.109-1.973c0,0.055-0.012,0.113-0.012,0.176
								c0,1.164,0.945,2.109,2.121,2.109c1.164,0,2.109-0.945,2.109-2.109c0-0.063-0.012-0.121-0.012-0.176
								C1940.93,1299.898,1940.023,1300.777,1938.914,1300.777z"/>
							<path style="fill:#FFFFFF;" d="M1940.848,1298.98c0,1.066-0.875-0.121-1.934-0.121c-1.07,0-1.945,1.188-1.945,0.121
								c0-1.07,0.875-1.938,1.945-1.938C1939.973,1297.043,1940.848,1297.91,1940.848,1298.98z"/>
						</g>
					</g>
					<g>
						<path style="fill:#8C4223;" d="M1941.023,1317.539c0,1.168-0.945,2.113-2.109,2.113c-1.176,0-2.121-0.945-2.121-2.113
							c0-1.172,0.945-2.117,2.121-2.117C1940.078,1315.422,1941.023,1316.367,1941.023,1317.539z"/>
						<g>
							<path style="fill:#B3CBD1;" d="M1941.023,1316.793c0,1.176-0.945,2.121-2.109,2.121c-1.176,0-2.121-0.945-2.121-2.121
								c0-1.164,0.945-2.109,2.121-2.109C1940.078,1314.684,1941.023,1315.629,1941.023,1316.793z"/>
							<path style="fill:#819CA3;" d="M1938.914,1317.746c-0.969,0-1.777-0.648-2.027-1.535c-0.051,0.188-0.094,0.383-0.094,0.582
								c0,1.176,0.945,2.121,2.121,2.121c1.164,0,2.109-0.945,2.109-2.121c0-0.199-0.031-0.395-0.094-0.582
								C1940.68,1317.098,1939.871,1317.746,1938.914,1317.746z"/>
							<path style="fill:#516A6F;" d="M1938.914,1318.594c-1.125,0-2.027-0.867-2.109-1.965c0,0.051-0.012,0.113-0.012,0.164
								c0,1.176,0.945,2.121,2.121,2.121c1.164,0,2.109-0.945,2.109-2.121c0-0.051-0.012-0.113-0.012-0.164
								C1940.93,1317.727,1940.023,1318.594,1938.914,1318.594z"/>
							<path style="fill:#FFFFFF;" d="M1940.848,1316.793c0,1.074-0.875-0.113-1.934-0.113c-1.07,0-1.945,1.188-1.945,0.113
								c0-1.063,0.875-1.93,1.945-1.93C1939.973,1314.863,1940.848,1315.73,1940.848,1316.793z"/>
						</g>
					</g>
					<g>
						<path style="fill:#8C4223;" d="M1941.023,1335.809c0,1.164-0.945,2.117-2.109,2.117c-1.176,0-2.121-0.953-2.121-2.117
							c0-1.168,0.945-2.117,2.121-2.117C1940.078,1333.691,1941.023,1334.641,1941.023,1335.809z"/>
						<g>
							<path style="fill:#B3CBD1;" d="M1941.023,1335.063c0,1.172-0.945,2.121-2.109,2.121c-1.176,0-2.121-0.949-2.121-2.121
								c0-1.164,0.945-2.117,2.121-2.117C1940.078,1332.945,1941.023,1333.898,1941.023,1335.063z"/>
							<path style="fill:#819CA3;" d="M1938.914,1336.012c-0.969,0-1.777-0.648-2.027-1.527c-0.051,0.184-0.094,0.375-0.094,0.578
								c0,1.172,0.945,2.121,2.121,2.121c1.164,0,2.109-0.949,2.109-2.121c0-0.203-0.031-0.395-0.094-0.578
								C1940.68,1335.363,1939.871,1336.012,1938.914,1336.012z"/>
							<path style="fill:#516A6F;" d="M1938.914,1336.859c-1.125,0-2.027-0.867-2.109-1.969c0,0.063-0.012,0.113-0.012,0.172
								c0,1.172,0.945,2.121,2.121,2.121c1.164,0,2.109-0.949,2.109-2.121c0-0.059-0.012-0.109-0.012-0.172
								C1940.93,1335.992,1940.023,1336.859,1938.914,1336.859z"/>
							<path style="fill:#FFFFFF;" d="M1940.848,1335.063c0,1.07-0.875-0.109-1.934-0.109c-1.07,0-1.945,1.18-1.945,0.109
								c0-1.066,0.875-1.93,1.945-1.93C1939.973,1333.133,1940.848,1333.996,1940.848,1335.063z"/>
						</g>
					</g>
				</g>
			</g>
		</g>
		<g>
			<path style="fill:#BD693C;" d="M1957.309,1363.203c-16.141-1.148-70.289,0.133-110.035,1.273h110.672
				C1957.727,1364.055,1957.527,1363.629,1957.309,1363.203z"/>
			<g>
				<g>
					<path style="fill:#D57D49;" d="M1957.039,1362.629l-6.09-5.766h-169.02l-6.52,7.613h182.535
						C1957.633,1363.867,1957.34,1363.242,1957.039,1362.629z"/>
				</g>
				<path style="fill:#BD693C;" d="M1778.176,1361.25c89.637-3.516,160.926-2.074,175.578-1.727l-1.746-1.652
					c-24.027-1.648-145.176,1.008-172.313,1.605L1778.176,1361.25z"/>
				<g>
					<polygon style="fill:#F9A781;" points="1781.223,1357.695 1951.813,1357.695 1950.949,1356.863 1781.93,1356.863 					"/>
				</g>
				<path style="fill:#BD693C;" d="M1775.898,1363.91c36.172-1.77,158.98-2.172,180.133-2.234l-0.707-0.66
					c-26.066-1.27-152.004,1.094-178.313,1.59L1775.898,1363.91z"/>
				<path style="fill:#9B502A;" d="M1957.664,1363.91h-181.766l-0.488,0.566h182.535
					C1957.852,1364.281,1957.758,1364.102,1957.664,1363.91z"/>
			</g>
			<g>
				<g>
					<path style="fill:#D57D49;" d="M1959.242,1366.703H1773.5l-6.508,7.613H1965.5
						C1963.277,1371.887,1961.063,1369.438,1959.242,1366.703z"/>
				</g>
				<path style="fill:#BD693C;" d="M1959.848,1367.59c-31.672-1.375-159.41,1.152-188.582,1.73l-1.52,1.77
					c94.063-3.324,169.969-2.207,191.387-1.785C1960.688,1368.742,1960.262,1368.172,1959.848,1367.59z"/>
				<g>
					<path style="fill:#F9A781;" d="M1959.242,1366.703H1773.5l-0.707,0.828h187.012
						C1959.617,1367.262,1959.43,1366.984,1959.242,1366.703z"/>
				</g>
				<path style="fill:#BD693C;" d="M1962.309,1370.738c-34.953-0.984-165.715,1.234-193.715,1.707l-1.121,1.305
					c38.184-1.688,164.582-2.133,195.523-2.223C1962.766,1371.266,1962.539,1371.008,1962.309,1370.738z"/>
				<path style="fill:#9B502A;" d="M1964.98,1373.75h-197.508l-0.48,0.566H1965.5
					C1965.324,1374.133,1965.156,1373.945,1964.98,1373.75z"/>
			</g>
			<g>
				<g>
					<path style="fill:#D57D49;" d="M1971.934,1382.777c-0.582-0.746-1.176-1.492-1.727-2.258c-0.652-0.941-1.203-1.898-1.684-2.906
						c-0.031-0.02-0.063-0.047-0.094-0.066h-0.414v-0.418c0-0.012-0.012-0.012-0.012-0.02c-0.164-0.188-0.332-0.371-0.5-0.559
						h-202.422l-6.52,7.609h214.422c-0.043-0.047-0.086-0.094-0.117-0.141C1972.359,1383.328,1972.473,1383.48,1971.934,1382.777z"
						/>
				</g>
				<path style="fill:#BD693C;" d="M1968.43,1377.547h-0.414v-0.188c-37.762-1.207-173.762,1.234-205.168,1.809l-1.52,1.766
					c100.453-3.242,182.125-2.266,207.984-1.82c-0.277-0.488-0.551-0.984-0.789-1.5
					C1968.492,1377.594,1968.461,1377.566,1968.43,1377.547z"/>
				<g>
					<path style="fill:#F9A781;" d="M1968.004,1377.109c-0.164-0.188-0.332-0.371-0.5-0.559h-202.422l-0.707,0.824h203.641v-0.246
						C1968.016,1377.117,1968.004,1377.117,1968.004,1377.109z"/>
				</g>
				<path style="fill:#BD693C;" d="M1970.219,1380.527c-41.199-0.852-179.977,1.293-210.055,1.762l-1.113,1.309
					c40.816-1.656,174.477-2.125,211.801-2.219C1970.645,1381.102,1970.426,1380.82,1970.219,1380.527z"/>
				<path style="fill:#9B502A;" d="M1972.867,1384.02c-0.145-0.195-0.238-0.32-0.309-0.422h-213.508l-0.488,0.563h214.422
					C1972.941,1384.113,1972.898,1384.066,1972.867,1384.02z"/>
			</g>
		</g>
		<g>
			<rect x="1757.473" y="1384.16" style="fill:#675E57;" width="3.074" height="3.082"/>
			<polygon style="fill:#C1B8B3;" points="1760.547,1384.16 1757.473,1384.16 1780.129,1356.863 1783.207,1356.863 			"/>
		</g>
		<g>
			<rect x="1972.598" y="1384.16" style="fill:#675E57;" width="3.078" height="3.082"/>
			<polygon style="fill:#C1B8B3;" points="1972.598,1384.16 1975.676,1384.16 1953.016,1356.863 1949.949,1356.863 			"/>
		</g>
	</g>
	<g>
		<g>
			<path style="fill:#1E1E3A;" d="M575.617,954.801c0,3.508-2.836,6.352-6.359,6.352l0,0c-3.492,0-6.352-2.844-6.352-6.352v-13.309
				c0-3.508,2.859-6.355,6.352-6.355l0,0c3.523,0,6.359,2.848,6.359,6.355V954.801z"/>
			<path style="fill:#FEF6D3;" d="M568.695,992.004h-79.086c0,0,0.016,6.715,4.148,13.824c4.969,8.57,61.105,46.18,65.813,46.461
				l9.125,3.23l9.125-3.23c4.711-0.281,60.844-37.891,65.824-46.461c4.125-7.109,4.149-13.824,4.149-13.824H568.695z"/>
			<rect x="562.324" y="1055.156" style="fill:#393755;" width="9.543" height="346.418"/>
			<polygon style="fill:#534E6E;" points="576.644,1503.176 557.555,1503.176 553.449,1366.793 580.742,1366.793 			"/>
			<polygon style="fill:#393755;" points="578.68,1621.84 555.496,1621.84 550.734,1458.172 583.453,1458.172 			"/>
			<path style="fill:#1E1E3A;" d="M554.019,1050.855c0,0-0.156,3.938,6.566,6.609c6.719,2.664,18.297-1.145,20.969-3.785
				c0,0,4.641-4.363-0.813-5.383C577.519,1047.688,553.449,1047.473,554.019,1050.855z"/>
			<path style="fill:#393755;" d="M490.285,996.984c0,0,112.316-6.508,157.508,0c0,0,8.269-6.195,6.461-14.656
				c-1.805-8.477-47.789-34.488-87.098-33.277c0,0-68.356,9.074-85.297,33.875C476.598,990.629,490.285,996.984,490.285,996.984z"/>
		</g>
		<g>
			<path style="fill:#1E1E3A;" d="M1703.145,952.129c0,3.508-2.836,6.352-6.359,6.352l0,0c-3.492,0-6.352-2.844-6.352-6.352V938.82
				c0-3.508,2.859-6.356,6.352-6.356l0,0c3.523,0,6.359,2.848,6.359,6.356V952.129z"/>
			<path style="fill:#FEF6D3;" d="M1696.223,989.336h-79.086c0,0,0.012,6.711,4.148,13.82c4.969,8.578,61.105,46.188,65.813,46.461
				l9.125,3.227l9.125-3.227c4.711-0.273,60.844-37.883,65.824-46.461c4.125-7.109,4.145-13.82,4.145-13.82H1696.223z"/>
			<rect x="1689.852" y="1052.484" style="fill:#393755;" width="9.543" height="346.418"/>
			<polygon style="fill:#534E6E;" points="1704.176,1500.508 1685.082,1500.508 1680.977,1364.121 1708.27,1364.121 			"/>
			<polygon style="fill:#393755;" points="1706.211,1619.164 1683.023,1619.164 1678.262,1455.508 1710.98,1455.508 			"/>
			<path style="fill:#1E1E3A;" d="M1681.547,1048.184c0,0-0.156,3.938,6.57,6.609c6.715,2.668,18.293-1.145,20.961-3.781
				c0,0,4.648-4.367-0.809-5.391C1705.047,1045.02,1680.977,1044.801,1681.547,1048.184z"/>
			<path style="fill:#393755;" d="M1617.813,994.313c0,0,112.313-6.504,157.504,0c0,0,8.273-6.195,6.465-14.656
				c-1.809-8.473-47.789-34.488-87.098-33.277c0,0-68.359,9.074-85.301,33.875C1604.125,987.957,1617.813,994.313,1617.813,994.313z
				"/>
		</g>
	</g>
</g>
</svg>
